<?xml version="1.0" encoding="UTF-8" standalone="no"?>
<!-- Created with Inkscape (http://www.inkscape.org/) -->

<svg
   width="1920mm"
   height="1080mm"
   viewBox="0 0 1920 1080"
   version="1.1"
   id="svg1"
   inkscape:version="1.4 (86a8ad7, 2024-10-11)"
   sodipodi:docname="Mapa.svg"
   xmlns:inkscape="http://www.inkscape.org/namespaces/inkscape"
   xmlns:sodipodi="http://sodipodi.sourceforge.net/DTD/sodipodi-0.dtd"
   xmlns="http://www.w3.org/2000/svg"
   xmlns:svg="http://www.w3.org/2000/svg">
  <sodipodi:namedview
     id="namedview1"
     pagecolor="#ffffff"
     bordercolor="#000000"
     borderopacity="0.25"
     inkscape:showpageshadow="2"
     inkscape:pageopacity="0.0"
     inkscape:pagecheckerboard="0"
     inkscape:deskcolor="#d1d1d1"
     inkscape:document-units="mm"
     showguides="true"
     inkscape:zoom="0.090755647"
     inkscape:cx="4506.6066"
     inkscape:cy="2947.475"
     inkscape:window-width="1920"
     inkscape:window-height="1017"
     inkscape:window-x="-8"
     inkscape:window-y="-8"
     inkscape:window-maximized="1"
     inkscape:current-layer="layer11">
    <sodipodi:guide
       position="-185.53094,540.00001"
       orientation="0,1"
       id="guide4"
       inkscape:locked="false"
       inkscape:label=""
       inkscape:color="rgb(0,134,229)" />
  </sodipodi:namedview>
  <defs
     id="defs1">
    <inkscape:path-effect
       effect="rough_hatches"
       id="path-effect46"
       is_visible="false"
       lpeversion="1.2"
       direction="3749.494,1877.4663 , 2270.061,0"
       dist_rdm="75;1"
       growth="0"
       do_bend="true"
       bender="3749.494,1882.4663 , 5,0"
       bottom_edge_variation="628.48471;1"
       top_edge_variation="628.48471;1"
       bottom_tgt_variation="0;1"
       top_tgt_variation="0;1"
       scale_bf="1"
       scale_bb="1"
       scale_tf="1"
       scale_tb="1"
       top_smth_variation="0;1"
       bottom_smth_variation="0;1"
       fat_output="true"
       stroke_width_top="1"
       stroke_width_bottom="1"
       front_thickness="1"
       back_thickness="0.25" />
    <inkscape:path-effect
       effect="roughen"
       id="path-effect45"
       is_visible="true"
       lpeversion="1.2"
       global_randomize="2;1"
       displace_x="50;1"
       displace_y="50;1"
       method="segments"
       max_segment_size="125.007"
       segments="23"
       handles="retract"
       shift_nodes="true"
       fixed_displacement="false"
       spray_tool_friendly="false" />
    <linearGradient
       id="swatch24"
       inkscape:swatch="solid">
      <stop
         style="stop-color:#826259;stop-opacity:1;"
         offset="0"
         id="stop24" />
    </linearGradient>
  </defs>
  <rect
     style="fill:#653300;fill-opacity:1;stroke:none;stroke-width:10;stroke-linecap:round;stroke-linejoin:round;stroke-dasharray:none;stroke-opacity:1"
     id="rect11"
     width="1920"
     height="1080"
     x="0"
     y="0"
     inkscape:label="background" />
  <g
     inkscape:groupmode="layer"
     id="layer11"
     inkscape:label="Layer 1">
    <path
       style="fill:none;fill-opacity:1;stroke:#964c00;stroke-width:100;stroke-linecap:round;stroke-linejoin:round;stroke-dasharray:none;stroke-opacity:1;stroke-dashoffset:0"
       d="m 218.6503,1177.7963 c 29.15337,-134.1055 -48.61191,-500.60264 -16.78917,-680.67279 27.95948,-158.20972 -35.6869,-599.1603 40.11187,-762.4192"
       id="path5"
       sodipodi:nodetypes="csc" />
    <path
       style="fill:none;fill-opacity:1;stroke:#964c00;stroke-width:100;stroke-linecap:round;stroke-linejoin:round;stroke-dasharray:none;stroke-opacity:1"
       d="m 882.30267,-222.63712 c -51.53636,173.162204 -125.74876,515.3637 -82.45819,665.84992 43.29054,150.48618 -41.08855,285.72295 -22.67601,381.36914 18.41254,95.64618 4.1229,375.18476 4.1229,375.18476"
       id="path24" />
    <path
       style="display:inline;fill:none;fill-opacity:1;stroke:#964c00;stroke-width:100;stroke-linecap:round;stroke-linejoin:round;stroke-dasharray:none;stroke-opacity:1"
       d="m 1640.9181,-189.65384 c 59.7821,144.301834 49.4749,397.86078 -8.2459,517.42515 -57.7207,119.56438 -53.5978,391.67643 -14.4302,459.70443 39.1677,68.02803 -47.4134,490.62626 -47.4134,490.62626"
       id="path25" />
    <path
       style="display:inline;fill:none;fill-opacity:1;stroke:#964c00;stroke-width:100;stroke-linecap:round;stroke-linejoin:round;stroke-dasharray:none;stroke-opacity:1"
       d="m -136.05602,727.69356 c 204.08403,-22.67601 533.9168,41.22909 672.03427,12.36872 138.11747,-28.86036 484.44185,-14.43017 620.49795,-24.73746 136.056,-10.30727 397.8607,59.78221 583.3917,24.73746 185.5309,-35.04473 385.492,-26.79891 385.492,-26.79891"
       id="path26" />
    <path
       style="display:inline;fill:none;fill-opacity:1;stroke:#964c00;stroke-width:100;stroke-linecap:round;stroke-linejoin:round;stroke-dasharray:none;stroke-opacity:1"
       d="m -154.60911,349.19905 c 204.084026,22.67601 533.9168,-41.22909 672.03427,-12.36872 138.11747,28.86036 484.44184,14.43017 620.49794,24.73746 136.056,10.30727 397.8607,-59.78221 583.3917,-24.73746 185.5309,35.04473 385.492,26.79891 385.492,26.79891"
       id="path27" />
    <rect
       style="display:inline;fill:#666666;fill-opacity:1;stroke:#000000;stroke-width:10;stroke-linecap:round;stroke-linejoin:round;stroke-dasharray:none;stroke-dashoffset:0;stroke-opacity:1"
       id="rect33"
       width="413.97794"
       height="219.97546"
       x="290.07605"
       y="430.01224" />
    <path
       style="display:inline;fill:#964c00;fill-opacity:1;stroke:none;stroke-width:294.475;stroke-linecap:round;stroke-linejoin:round;stroke-dasharray:none;stroke-dashoffset:0;stroke-opacity:1"
       d="m 5869.958,5001.3146 -28.9411,-30.4633 57.9453,11.2152 -60.1191,-31.5563 -12.5245,-14.7277 -6.1146,0.6634 13.1474,9.3336 -26.9308,-30.6204 21.387,17.4161 -12.4793,-1.9888 10.4043,7.2277 -17.1078,-8.0383 -5.1786,-4.219 -29.3506,-63.8232 -25.513,-12.9927 35.2231,24.8393 -4.5104,1.0645 -1.2011,0.9812 -0.093,1.8478 77.2646,1.1105 -100.7984,-81.4727 6.6328,64.6865 0.052,1.3181 43.527,15.1343 -7.8366,-12.3723 -2.4295,-5.7818 -10.3583,-17.1209 -10.4736,-14.5997 -4.3335,-35.1013 -12.1963,2.8117 -1.8774,-1.1862 -10.0839,-49.2777 64.6891,35.6755 -2.7108,2.3556 12.2729,7.1622 30.3157,-17.4067 -67.0252,-62.9418 14.9022,9.6743 -21.7019,-73.5476 5.2664,45.5738 38.324,1.1902 -43.496,-24.0383 27.8237,24.074 -21.8817,-20.3298 -4.7896,-3.792 -20.5555,-59.0966 9.3487,30.9424 0.01,-132.4596 3.0167,-75.5513 9.3134,-118.9638 2.9862,-46.5536 17.884,-42.3296 102.3824,-55.9873 38.3135,-69.7266 -8.8688,-169.098 -2.1424,-3.1738 20.5646,-33.547 -2.9753,-85.1997 42.4672,-49.3495 -9.9329,-79.9454 37.9137,-48.7608 -22.7428,-78.8681 -23.7497,-71.7271 22.522,-13.5299 -6.6736,-57.9018 4.8977,-41.1077 9.5659,-39.3278 26.868,-43.2833 -71.121,-105.1936 15.6404,19.6842 -14.6215,-36.9788 55.0079,8.2779 37.3414,-2.1402 -51.0705,-75.9528 -20.0896,-10.5331 27.2136,2.5306 -30.6294,-11.6839 -8.0819,-68.4557 -12.4674,57.2007 17.9336,9.8022 -6.3186,-21.8841 -23.7354,-11.1637 59.1603,37.5029 -39.8958,-26.3663 -20.5023,-9.247 4.1127,11.7043 3.0727,0.7014 17.0212,2.6641 -31.0526,-47.2229 10.2749,17.8317 58.0717,46.3299 -56.9266,-82.5974 -0.8798,53.3417 -2.5937,-3.8683 53.613,19.6214 -63.3324,-41.5016 41.0156,21.875 -44.553,-20.1019 -8.1253,-77.3529 -46.7241,17.5406 55.3016,37.1958 28.2948,17.0267 -29.0252,5.996 4.3652,5.5488 -13.3989,4.8632 -15.2065,-2.3458 41.8575,10.0143 -8.5703,-0.721 -1.7113,-13.126 14.9391,2.4691 -65.5049,3.8935 -20.9423,-0.6682 -28.7864,-14.0021 -12.1948,-17.2794 13.5632,23.1211 -29.967,-8.4682 -31.3029,-44.6563 -13.722,-1.4572 -16.387,2.8189 -27.9413,-22.1049 -19.6046,7.9041 -9.5596,9.8024 -31.0354,-5.7063 0.1826,16.8836 -16.9751,16.4368 -10.8125,17.1424 -60.3879,-11.4998 45.2368,4.5017 -88.919,-6.2694 -48.5543,-16.2607 -23.9178,-4.6107 -30.0365,-3.5736 -25.2077,3.2865 -43.7383,-10.389 -34.3157,-14.9443 -45.3388,-30.9699 -26.797,24.7229 -38.6003,1.874 -44.2379,-20.4649 -66.3837,-10.3855 3.5606,4.7207 -112.1568,-19.6164 -17.9728,18.4495 -96.3482,-46.6248 35.8199,23.4358 -100.7914,-2.2759 -42.1464,-1.4416 -33.6518,-0.3158 -40.18,-1.93 -24.3822,7.5848 -40.9883,-1.3892 -35.082,-94.1343 -55.8715,36.9674 -37.0137,-11.9725 -15.8062,28.2417 9.2246,24.2251 -54.6272,-1.6588 -29.8296,-12.9323 -33.4536,-15.4952 -40.7734,15.4243 16.4238,30.893 -59.4435,0.07 1.5164,12.7135 29.4345,13.5669 -93.2283,-25.1608 -7.8477,-2.4794 -6.8776,4.0664 -13.5128,9.3675 19.9389,3.8978 -49.8434,16.8122 -55.5415,6.5603 -10.8754,13.8602 -88.87,-30.2533 29.296,4.2694 -94.1096,-48.4326 -32.441,-15.0392 -16.0794,10.1743 6.4809,15.5269 -82.0804,3.021 -26.7974,11.6508 -58.7875,-65.444 -38.814,47.7541 -8.331,25.2273 -31.5456,10.3693 -60.5663,-25.9365 -14.2927,6.7036 -29.1506,-0.2871 -0.1438,13.8726 -5.9113,0.806 -72.2605,-33.2332 -1.1957,4.8485 -5.7924,17.9492 -24.4494,3.6101 2.3395,22.3308 -66.4637,-15.0461 -18.7765,-25.7343 -21.6003,-40.7327 -35.5971,5.9503 1.5219,14.0827 -24.3099,13.8246 -30.3576,-56.9706 -34.9615,37.9934 -19.6273,7.8527 -38.2955,-36.4096 -34.9813,22.1439 -10.3402,47.3826 -3.4175,-0.1509 -11.1666,-1.2472 2.3662,5.7341 4.2896,4.9784 4.0034,4.075 7.0664,6.5318 33.9251,24.0731 -6.429,-18.1864 -9.2046,16.8213 3.7539,7.9999 -15.6556,-11.9624 -2.0694,9.5518 4.1046,8.8521 -9.8738,-18.8409 4.5193,25.7512 -0.298,3.5726 -10.5744,-9.0262 0.7051,15.8196 6.6764,11.2267 -0.5312,-0.51 14.9528,6.4716 45.5909,15.9009 -19.2179,8.1574 -5.2185,14.7705 -34.4101,-18.3777 -2.4297,-21.1458 58.1608,54.5298 -25.9558,-41.9449 18.9794,61.1643 53.9266,14.3549 -44.4119,42.6406 4.9106,10.7992 -19.2551,11.0523 -4.3657,-42.4049 90.2452,11.118 -99.6269,26.9571 29.1382,17.3218 -27.4313,6.528 -1.1536,-1.2085 10.791,6.665 -6.9232,10.7608 60.829,6.7078 -86.366,-11.4931 -0.8799,0.2665 0.1469,-8.9169 -2.6218,7.7804 3.7821,17.368 12.2713,18.683 -1.4688,9.3497 29.1477,16.916 55.6843,29.475 -31.7708,17.5052 -11.9818,-4.1269 52.9839,25.0969 11.3473,44.3427 0.4217,41.9994 43.2078,27.4041 -65.2534,23.3624 24.1269,17.2778 -23.4081,19.3617 41.5282,12.6505 -38.1232,31.7671 36.8085,32.6999 -67.8232,2.6908 -10.1624,-0.8727 34.5832,47.6962 -27.1589,44.6615 -25.1095,-18.6838 -24.6805,62.0091 1.6956,49.3879 2.3893,82.9873 40.4688,83.0303 -13.0939,49.7464 -20.3618,13.0454 -17.8425,57.9086 22.0316,118.8896 -4.3987,48.1329 37.7917,73.6431 -10.6487,-28.0004 3.2037,104.4777 46.4112,43.9223 8.2492,70.0861 -46.411,29.2673 35.3267,25.5081 -77.2708,-13.8473 3.917,11.9349 -12.5844,16.1976 5.445,27.9497 -8.2805,12.0718 -10.044,4.1091 6.2331,20.6941 -0.5275,8.4424 28.3977,17.66 -27.6018,-4.4683 -15.8957,4.3149 -29.3444,-10.3065 -29.0609,-0.5623 -7.081,32.6662 -7.8588,9.678 -14.8175,-13.6942 -29.1413,6.8193 26.0812,38.5896 -25.7265,-8.5318 -6.0316,10.9638 -31.9813,-26.6308 28.261,35.0694 -54.8391,-48.5491 4.45,47.3463 -13.1928,3.1991 -32.6796,-60.9195 -28.0337,35.3947 -6.9496,-20.3138 -8.5183,24.7757 -9.4312,-9.0089 -19.284,-10.7559 20.1938,23.1699 -16.9129,-8.6193 -6.4861,-6.3401 38.5013,13.7969 -64.6776,-73.7939 11.6303,3.2746 -10.8756,-73.2367 -8.8407,50.0114 34.1476,4.6662 -19.1077,-7.0497 -7.0436,-6.2211 -18.0824,-65.9181 -9.4354,40.3439 5.9453,4.8378 1.0009,0.6103 21.4219,5.8563 -22.5577,-30.1585 6.9246,16.7629 81.7658,1.7471 -88.5375,-14.7345 -1.7626,1.3053 -10.1146,-48.5748 16.6716,53.0464 2.9889,0.118 -20.2026,-17.4459 12.6154,1.4947 51.3009,3.5271 -13.156,-33.2547 27.7471,-13.8427 -25.7311,-38.2369 57.4218,14.3554 -40.8139,-46.5727 29.9615,14.8868 -41.8588,-86.6838 -0.8331,-0.8881 -14.0244,-29.5898 2.0712,2.2082 49.9479,17.7298 -43.1743,-34.7762 -31.4531,-54.3628 -6.1524,-12.4024 6.2875,5.4692 51.873,3.2805 -58.2964,-64.3093 6.6101,1.6526 -8.9926,-106.3914 2.2981,49.6436 40.2793,-14.1938 -1.511,-52.712 5.9874,-45.3203 14.8608,-50.1269 -1.1057,-56.5602 12.9268,-40.4854 -12.8445,-66.4727 22.4151,-42.2227 -27.1454,-88.1609 6.9315,0.5447 -29.4226,-81.2019 57.4861,13.0419 -34.1664,-71.9115 -12.7769,-32.197 -13.2207,-48.4113 77.8615,-8.3447 -50.2543,-53.0328 -22.5227,-33.1958 -30.8798,-48.3205 -18.5302,-45.1172 7.122,10.0225 -3.4809,-11.1663 -5.6813,-27.3826 -3.9711,-23.6652 -0.9937,-20.5968 -16.6657,-41.2766 4.5307,2.642 16.4947,3.0121 -4.9988,-6.1951 -16.0965,-25.1434 28.6853,8.9653 10.3111,9.4096 -15.6614,-15.1263 -12.4664,-14.6698 -12.5382,-27.4933 87.4182,11.0862 -43.9713,-10.6036 -0.09,1.846 19.2782,1.1804 -38.197,-33.4648 -5.6269,-64.9339 21.2543,64.3893 -14.1676,-5.2764 -19.7003,-21.6672 -1.2844,-10.2406 4.1851,16.5898 -17.2616,-36.9234 -0.5388,-4.8057 23.1481,8.8513 45.1719,-5.9232 48.2343,-37.4376 -91.2468,-21.1477 29.3396,16.4245 -35.6055,-26.0549 29.987,14.0109 -43.8772,-27.1641 12.3403,19.5958 -0.3616,-86.0687 16.5054,97.7508 39.3151,-5.2689 -23.7197,10.6974 -37.19,-28.8945 -1.1044,6.2587 -0.4425,-1.7258 -12.03,-13.974 64.6209,21.1197 -19.0368,15.8768 -34.2683,-26.4332 1.703,5.6782 69.2474,10.6353 31.7872,6.247 -51.4977,-15.2246 -13.2339,-16.8976 2.5848,2.4002 19.6329,12.0988 -30.4372,-19.749 47.9147,4.4316 -56.1116,8.3762 -9.2394,-18.7077 -0.5871,14.3105 -27.4962,-35.3819 -2.9558,31.0782 -2.2155,-5.1697 23.9027,15.3874 -45.0561,-37.1494 -17.2987,20.2742 -11.1652,-4.9514 29.9243,36.0704 -17.5222,-77.3518 -5.0126,72.5654 17.7841,0.9613 -21.1993,-12.9517 25.9012,29.6186 43.7224,10.0531 -71.4302,-30.3018 54.0162,6.2118 -13.3286,6.497 -53.5457,-0.9469 -6.9682,2.0503 -12.8473,-2.8659 -3.9967,1.1373 -23.6254,-15.673 16.2888,10.611 -19.2909,1.6289 -7.0523,1.4237 25.0106,21.8195 -60.956,-42.536 0.1228,8.8143 53.7427,4.8718 -33.162,10.8593 -44.4919,-26.4612 -17.9759,-6.9565 -1.6546,25.7489 -2.0052,-1.6469 -5.6155,0.1 47.3043,20.7076 -24.4963,-0.7013 -19.7729,3.7358 -40.5723,-48.9466 -22.3821,6.6843 -25.4785,1.24 18.4899,15.4911 -63.5254,-2.0615 -27.984,-26.7764 -22.7945,15.0834 -18.2125,9.1908 2.5522,23.7281 -33.3101,5.2176 -21.1736,-88.8322 -43.5082,64.0694 -17.5948,-20.8868 -14.9248,39.2594 9.5093,20.2074 -31.6428,3.2707 -7.6345,9.9207 -29.9606,-3.3644 -21.436,-14.0367 24.6129,17.1662 -58.4942,-17.5878 -26.7431,12.5961 -19.3598,17.8011 -45.8726,7.4428 39.5758,8.3667 -23.7364,17.7602 -109.5527,3.5126 -38.7205,-2.4856 4.7506,14.1126 -71.9516,-4.7324 -35.0978,-2.1066 -32.1558,1.3389 23.1813,15.7923 -35.9803,4.6543 -114.6803,-20.0539 -47.5731,-42.4445 -40.0437,-12.923 -44.6325,12.4297 -44.3866,11.8887 -74.1668,-21.646 -53.8584,-53.7019 -47.9668,61.6953 -36.5487,23.2875 -90.2122,-18.3996 -14.0531,-6.1207 23.8595,19.3532 -26.3783,0.4683 -28.7491,-80.2245 -33.6432,21.7558 -11.6463,-9.0856 -32.46859,-14.6078 -24.0563,13.388 17.03889,53.3393 -3.51563,-17.5781 26.84937,16.3376 -7.14569,-7.8186 -2.02332,-5.9921 9.10862,12.1819 4.93565,15.0541 -7.79832,4.0934 -5.04372,-2.2025 -31.80108,-28.1835 -11.64729,-11.1139 8.96201,-41.1354 18.3175,65.6616 30.7804,14.0177 -23.06113,-3.0844 -7.45486,-5.5443 -9.73041,-10.7591 30.56341,39.2002 -4.59738,-2.8611 57.24547,20.1877 -33.8758,24.2775 -7.5464,-23.409 37.7233,36.6406 -22.8871,24.8578 21.4065,24.5294 -16.4199,22.2756 33.1743,26.8056 22.7272,19.4736 -52.0046,27.5524 -32.88776,-52.207 -4.06178,-2.9114 -4.64931,19.6878 -23.30417,-15.3055 23.68461,63.3874 -11.76814,-10.2118 0.89616,43.1461 -17.25223,-32.862 12.21639,68.7743 39.66483,44.0844 4.7493,13.8235 -5.1276,17.9566 -5.9671,19.6673 19.5503,45.3816 -5.603,-44.9418 -23.63467,46.8366 0.37684,31.2189 75.80483,58.4088 2.7752,49.1831 -4.8766,28.0663 -17.429,-8.9137 24.9467,42.2071 0.1991,27.9994 -29.2575,-15.4741 -16.0405,-58.197 -15.8883,73.7081 23.7393,41.9225 26.0757,28.0636 -57.7776,-21.4852 17.7289,23.7031 -3.9824,-93.4153 -11.0596,35.7836 -10.7854,11.7324 1.6092,43.2427 12.9447,45.438 -5.1259,22.8336 8.3637,48.8193 25.4563,36.9204 -17.5879,-32.1279 2.3476,105.0108 -10.2002,-11.0577 1.3586,84.8142 -15.336,17.343 4.5739,58.0686 -6.2239,28.1234 28.2799,50.3266 -18.0051,-28.9262 7.8689,91.3518 72.4698,37.0331 -50.5153,19.4142 33.6155,40.5394 -7.8998,35.7117 -40.4638,1.0765 37.6985,23.348 -9.4838,-0.4374 -8.0052,11.0454 46.5741,20.1788 -26.2106,41.6784 -17.1821,9.8658 -17.339,-24.6648 -36.47769,-38.1583 -18.84547,55.6642 -22.44792,-8.2843 -23.34927,0.4346 0.79044,14.0817 -1.44814,42.2885 47.16372,27.9309 -3.44238,-6.958 -13.53101,-5.6536 -8.23144,-58.5666 55.81556,78.9908 -52.23712,22.3188 -15.3343,-1.2312 -29.15391,-41.9389 2.36796,48.7478 -9.26342,-36.2051 -3.0661,37.8108 7.69944,15.6502 44.13769,15.0483 -42.62951,24.6615 -63.29142,-35.3355 -7.2876,-67.7139 -45.30926,-35.4697 -32.35992,37.0053 22.49045,18.2567 1.60162,4.5494 31.28604,23.737 -45.96922,-8.1004 -10.01345,-1.578 -0.84737,4.1754 6.60801,5.2977 -47.62613,-26.4657 0.48512,-0.108 0.39175,1.2514 -43.97465,-40.8377 0.44809,1.3321 -20.70932,-25.2613 18.64429,19.099 -34.83044,-71.5109 44.00021,64.9929 25.46722,-4.4399 -22.56903,-38.8613 20.00427,12.7396 24.40676,2.2145 -32.34153,-13.8634 -6.34992,-4.3064 36.21091,4.8273 -60.4436,-41.6066 5.68237,5.1315 -11.53048,-68.7008 -30.5056,12.7333 7.08711,-1.438 2.86877,-3.9454 -19.88597,-31.524 19.65832,24.5811 11.6738,3.6978 -13.67187,-21.1486 28.82952,21.1956 -20.75244,-65.9976 -8.70946,46.935 13.45155,14.6019 -22.5812,-72.5698 8.374,61.2183 -2.87323,-30.3879 14.06043,-11.3382 -0.12327,-58.7969 -16.47491,-22.1527 -10.51026,-21.2769 16.35687,6.1133 20.51102,-19.9238 22.52716,-10.7602 71.52835,-39.2923 -16.4958,-54.8731 -16.93672,-39.9942 -31.99778,-92.6348 18.16407,4.9667 -6.41703,-20.5657 15.04044,-25.9496 5.88339,-56.6433 21.8575,-41.4926 -7.521,-63.6681 -70.26583,-133.2617 -2.31476,-4.8798 -16.0688,-31.6854 -40.01402,-108.2236 45.42183,-8.1033 -1.20419,-67.9262 -6.19788,-23.8968 -12.00113,-62.4818 v -2.089 l -14.61121,-32.2034 -5.80902,-15.8203 -3.31611,-5.3518 -4.58485,-21.2968 -0.5243,-17.5554 8.78887,-13.0593 -0.87649,-28.9429 -8.25533,-23.7048 4.64615,-12.8503 51.15184,2.5098 -21.01406,-48.7378 17.64634,-0.6249 -48.55461,-44.1544 -7.26,-9.272 7.24335,3.0524 -22.43263,-59.0286 10.21379,33.7695 -30.49906,-47.67 76.21339,47.5527 -67.691,-33.7378 -15.17435,-36.498 24.52069,12.8695 65.67231,8.8348 -65.69257,-63.517 -28.45339,-20.722 7.12451,36.8743 19.72422,20.8453 27.54974,7.37 9.40565,5.2536 -43.30626,-58.4498 -1.93412,38.2437 5.65338,5.31 -2.33459,-3.7078 60.2417,6.311 -59.0492,-7.2918 -3.39014,-2.9184 18.53521,12.615 -1.10806,4.3031 -19.67172,-18.1236 37.88641,15.9384 28.95775,-1.4024 -58.20184,-7.4336 14.26911,13.1832 -14.07275,-17.2948 0.0336,0.028 7.17244,1.8644 -39.75278,-10.5481 -30.57387,-51.5616 27.24269,12.9361 -47.12599,16.4499 -44.60197,-36.7041 -26.44801,-3.0391 -20.9147,9.7798 -20.17952,12.5573 -45.12679,-71.9015 -43.98212,41.7457 -28.48445,-3.4597 -24.59505,15.9128 -30.24615,0.4519 -26.19445,10.6235 4.50953,24.2182 18.51082,17.99 -126.963449,-79.1033 -31.591488,26.3274 -37.459606,-13.4824 -4.093195,22.0167 -11.76415569,8.6797 -17.99102331,4.5461 -41.946233,-15.3458 -4.822859,5.424 8.432968,23.4812 -58.464519,-56.6843 -41.9283,-49.2181 -31.63282,45.4862 37.06259,29.7638 -32.06805,-37.4474 -38.59368,4.776 -35.25824,-13.8735 -18.03878,35.7896 3.01421,4.8512 -4.90207,10.0525 -18.86585,-40.2167 -36.75751,22.8331 12.49759,29.3692 -2.95722,6.204 -4.55732,13.9674 48.11217,5.5856 -16.90876,2.9226 -90.02686,-24.7398 -17.72366,7.123 -23.6172,4.0114 46.07882,9.4651 -86.02318,-10.9837 4.15997,3.6507 11.71132,22.162 -83.23506,-69.4504 33.10732,16.3673 -28.19059,18.3843 -20.49,-23.0803 -11.49311,10.9877 -11.21693,-3.574 -21.29487,-17.5546 -24.74419,-6.2339 -11.73787,4.8902 12.52476,21.7413 -8.85773,-11.9476 9.14471,8.286 -4.48608,-5.0964 -0.54016,-0.5539 -7.2154,-23.6823 -2.2956,8.0632 -1.27776,-16.6427 8.24813,2.6548 -14.73905,-9.9121 1.95629,-6.206 -36.24253,-43.8717 -19.94019,-37.738 -14.72167,-22.6318 -0.72136,-8.1181 27.59368,17.5841 -17.58423,-28.8696 -5.60188,-20.1829 43.63547,5.9658 -11.99239,-3.1459 -19.66204,-36.032 -11.25047,-40.0866 41.76497,30.0335 6.86585,1.6185 -22.347,-72.3559 18.5571,45.1336 -5.3833,-6.2622 18.8715,5.5036 6.30053,4.2523 -5.59616,-8.21 64.22438,12.1669 17.53496,2.5012 -23.56853,-46.1295 -7.56683,-8.8501 22.13134,7.4769 -21.01745,-35.3745 5.25921,-5.6607 39.777,23.0982 -0.15564,-0.1618 7.34863,6.1524 -0.25449,-12.3715 -14.16238,-57.2068 63.46485,50.5086 -21.00313,-10.4924 4.6463,3.363 -20.7901,-44.6319 23.64779,33.3495 1.54368,1.9071 -15.62669,-50.6932 56.54963,57.1568 -9.69563,2.8272 16.77246,13.2568 -1.70211,-1.2233 76.66912,4.002 6.20768,-14.144 59.01987,0.189 -15.42054,-55.9616 76.42558,23.6617 -1.25109,-1.4381 81.8842,4.8066 -8.92945,-35.9207 60.13047,19.2098 105.103633,6.9113 -15.637207,-26.4038 37.6964944,7.1055 42.8383176,9.6207 95.878082,16.0853 -5.84784,-13.8101 54.77233,17.709 38.33482,2.1705 38.22681,-4.2182 55.71189,3.6584 48.17192,18.5843 30.69546,-33.6796 36.9833,18.4355 59.77555,32.1738 0.89224,-6.6134 8.72094,5.5373 21.01746,13.3255 -0.98877,-2.9663 20.1416,8.3252 -2.76031,-2.884 -8.20313,-9.082 8.84705,7.8156 -0.76905,-0.9888 31.15235,10.6201 -31.85601,-42.5744 37.24237,31.6212 -29.76556,-5.3456 16.7099,13.3393 -27.18659,-29.2038 39.73373,27.6927 -41.79061,-30.6285 7.87024,-76.6904 7.71419,96.1112 3.13963,7.4011 -3.40881,-3.2746 -5.80902,-8.6395 -14.07994,-27.9232 13.54435,26.3729 -3.10951,-14.2124 40.2832,18.3105 -11.1741,-34.6355 -19.14585,-36.8216 44.02314,3.4821 -15.7851,-87.2842 -35.0164,2.0311 -7.70417,-43.4235 12.45728,47.7371 45.5246,17.7155 -7.8478,-0.1522 -15.73794,-44.5182 -17.16591,30.4049 0.15869,0.061 15.13367,10.0006 -13.5084,-33.7962 -22.53592,-11.1288 -3.80249,-25.5386 74.41102,70.9824 -17.9165,-8.9119 -38.07557,-8.4539 -11.36742,-32.2146 3.39312,9.1842 -1.83977,-73.3819 14.52637,4.7607 19.54651,12.0697 -24.19429,-90.7576 10.89478,9.5215 -12.7681,-42.3904 -14.67895,-23.0347 13.66729,9.3811 85.39243,-2.3783 -48.51498,-55.3228 -26.03403,-44.4292 -23.23761,-37.5946 11.796,6.994 -15.21071,-33.8071 35.13633,16.6052 -6.66309,-38.9076 46.94592,-5.099 -43.04407,-88.0982 -19.36761,-34.0637 83.85743,32.9064 -43.65482,-18.5273 13.41448,-8.751 -7.1121,-15.2706 25.68597,-4.1573 -21.89531,-104.6174 -2.05079,-21.1914 -10.00213,-17.2669 -2.30713,-2.4048 10.53314,8.2123 2.09351,0.8972 -19.99701,-56.3724 -5.32755,-11.2019 23.04445,-2.4091 -14.53873,-79.426 6.61084,0.9319 7.72741,2.2745 -10.08446,-18.187 6.46321,-95.8729 0.26863,22.5693 12.79554,7.5456 -15.50293,-40.1138 13.96499,-5.1682 -0.56372,29.8797 7.79274,5.5821 -11.64514,-15.2379 0.47684,-22.2408 45.96348,23.7836 -44.84172,5.2326 16.30289,11.3396 -7.95024,8.3911 -16.89257,0.1829 -29.84957,-46.0735 -18.34716,-26.2573 -6.96827,24.2912 -6.51056,-13.3362 -3.413,20.1357 -1.55639,-1.6114 -4.00219,-3.0176 28.59929,25.2733 -17.74882,-9.1607 -20.10944,-30.7339 41.42313,45.9911 7.27436,13.3642 -54.61303,-9.0084 -6.56701,-0.1171 31.07791,-0.1629 -50.1292,-1.3938 -11.43676,-52.5509 40.40589,61.6003 -70.52178,3.4538 -71.57274,0.029 -70.57763,-13.2999 -2.72286,7.1004 -127.5468,6.3938 -68.315895,-1.6968 -72.919238,-20.9867 -42.255309,11.2836 -68.932778,-35.9146 -31.69279,23.4304 -53.40382,27.8769 -74.95645,1.4196 31.11239,7.9931 -148.97295,-65.7516 -28.66335,24.7058 -12.05787,28.638 -0.84218,9.4248 -104.62437,-69.2729 -23.77573,45.1312 -9.96483,14.2651 -51.88064,-7.9084 -20.49007,-1.5079 6.31749,6.6777 -19.71403,-21.6563 15.12988,8.7166 -48.12786,-31.5547 25.57983,0.9689 -39.50685,-18.684 3.39702,4.6024 47.52053,-0.4029 -69.03716,-29.6894 -26.60403,-62.8726 -18.37069,0.2781 -17.08435,-14.2924 34.87935,13.733 -18.19118,-10.9271 -3.53564,-0.1813 -14.76079,-20.9622 -16.45146,-51.3645 -0.55162,19.6662 -13.53117,-24.7997 19.77143,1.5096 -2.25771,-67.5946 33.39609,91.888 -20.81278,-7.8363 -14.049,-18.5781 6.30314,-1.4827 40.81966,-0.7824 -28.35635,-66.8873 24.09226,16.3193 82.81403,2.7954 -20.8909,-15.7229 45.06157,-9.9251 -69.03854,-36.675 1.89894,1.7718 1.61162,-0.1772 -2.77482,-9.385 32.52038,12.3572 -29.11285,-24.9578 15.20779,21.8518 -3.929,-17.4005 17.20478,23.1466 -8.95472,-4.7113 44.07543,2.106 29.46988,8.4102 -52.33475,6.5445 -28.68651,-25.444 8.39146,9.4421 44.96548,16.2293 22.73171,8.5299 -24.97089,-96.6434 14.74923,22.6645 3.56525,-20.6816 19.41722,16.3002 31.17673,19.6719 52.03857,8.9722 1.33673,7.9927 -21.41106,-61.2074 35.36107,31.5824 -17.78315,-19.3725 18.71543,15.3187 -6.42799,-29.9484 7.06611,20.8576 18.04296,4.8795 41.7686,30.8562 -12.49928,1.5052 41.72973,16.3376 -23.30431,-11.8268 0.62256,0.1816 -0.95215,-1.9837 7.00671,-11.8796 52.83685,21.1707 5.89976,-69.7106 97.25101,46.2463 -22.75085,-53.5187 68.69383,36.2003 8.38104,6.6928 -7.74034,-18.4548 49.99417,28.5077 18.60656,20.0214 -8.86405,-15.6126 -4.03119,-10.4103 -3.8412,-14.8585 12.47475,17.1227 3.25071,-11.7196 34.49337,17.6306 -9.1243,-27.3094 7.14619,-48.2454 43.472967,70.0643 52.578772,26.0406 52.117257,23.9965 -65.321735,-60.6446 1.98476,1.4869 -5.165511,-33.8219 26.8808137,71.7085 71.0390973,8.2881 83.715819,12.5244 -12.9364,-50.5478 18.37463,13.9252 56.26526,7.3746 29.65693,18.3727 -2.66423,-3.876 8.7282,-2.6466 89.66722,-1.6682 -0.72174,-3.5431 14.22891,-2.4705 28.86536,-18.3904 43.56424,4.9243 16.82878,-6.5296 45.87965,10.1198 1.4511,-21.5305 24.41558,-21.3154 38.67171,15.8569 21.49378,9.7226 -0.98337,-83.5857 26.84339,77.4626 4.54578,3.25 33.93311,13.8483 12.0353,6.3858 -14.18081,-17.2891 5.47934,1.803 -26.00913,-63.9542 -18.43262,-53.2242 18.26125,12.2859 30.44129,3.45 -6.43568,-6.2818 -13.08155,-19.62047 3.33536,4.43986 43.08381,12.13361 -41.71875,-39.02547 -9.62937,-20.80533 9.68472,8.24631 -19.81145,-66.53574 -23.51356,-40.08835 48.14559,16.74962 -9.03375,-2.08542 55.83398,-4.43425 -58.68866,-31.17359 -23.13705,-28.7514 -1.78293,-10.00034 16.6215,-11.23447 L 599.65645,609.66468 637.65936,536.00261 675.89053,419.14768 745.90339,303.39519 712.22331,170.75763 682.08034,64.244641 673.01066,-1.3763965 635.80602,-127.10465 l 6.73458,-31.08604 31.35998,-67.63063 -26.52655,-159.16985 -6.06608,-28.8923 -11.5325,-58.36768 41.0194,-45.91708 29.33093,-58.4716 48.12292,-68.78782 -9.65528,-71.16416 -43.81145,-70.31374 3.67549,-15.70293 -10.24725,-49.50299 -1.0361,-45.82613 -7.99784,-87.87186 18.14218,-73.28144 15.73167,0.3251 66.25115,16.824 -12.19824,-32.3183 -12.65496,-51.9753 7.85781,6.4103 2.99073,2.6916 -9.31702,-12.1384 -8.45901,-11.5011 24.32462,16.0725 13.266,7.2098 28.29783,3.3593 -17.10974,-12.9048 79.6545,1.3415 -79.59212,-98.4532 23.07342,70.1796 22.34028,16.9565 -17.02495,-13.6124 0.93454,-1.1931 -24.38621,-49.344 12.96157,31.9268 4.80229,11.4801 26.83998,3.5295 -35.9314,-17.2547 13.77493,-1.4193 9.04089,-3.5566 8.14877,-17.779 -11.05218,-52.4512 43.95966,16.6962 5.05534,-29.9677 42.25708,36.2456 0.77514,0.3228 39.69181,24.517 -21.14868,-47.7356 19.6837,33.3984 -19.30634,-46.0254 29.12645,50.031 3.53627,6.2278 37.01687,17.1957 -16.21188,-16.0132 13.66398,25.1403 -8.37296,-40.5606 7.01086,14.449 21.2163,48.3329 -1.181,2.2438 51.7562,25.2863 -32.9782,0.8207 11.1891,10.4941 -0.7048,-0.8301 65.7034,30.0074 21.9192,15.1467 -21.8506,11.5394 -10.9726,-14.3433 8.0018,11.3453 18.7972,11.5051 0.1634,28.8505 3.1842,20.1436 35.5127,31.10218 -52.9458,8.02695 -16.6149,-63.15123 8.8056,28.41497 -4.8352,6.22427 -13.2141,-2.43508 -6.2509,-7.76156 -16.0654,16.5585 36.6623,51.21595 -16.7153,7.50976 2.0031,11.87571 16.9842,17.42999 -47.9665,-28.19705 32.5603,44.68597 30.319,49.41818 -16.1661,56.01729 -17.4662,31.05621 65.6168,35.95702 -50.0861,73.16193 4.8503,37.37316 -32.3992,33.76219 -9.2546,34.2846 -14.8062,41.60433 -15.1119,39.47097 -23.4382,-39.53762 -40.63461,99.89035 -10.02475,67.26925 7.54342,70.6391 28.98034,60.57826 -31.12926,31.30395 -16.723,47.74111 42.02536,123.968617 -25.77401,51.180007 65.13281,68.668566 -88.15949,35.24163 41.88458,129.6265 1.10036,42.10145 50.31095,39.72085 -30.3193,9.12012 64.43,76.5525 60.5124,72.49354 -33.722,79.33379 -34.0769,-24.61922 -2.4416,83.12597 -18.5377,37.27903 2.3811,50.52754 -3.1379,46.06299 -23.1497,25.18262 -1.9759,36.6532 -23.2314,-50.03855 -30.90897,85.6801 -4.49226,48.75336 12.0447,42.53876 -7.45715,10.72812 -2.05422,25.3413 3.07268,15.6432 -11.86065,-30.2082 78.21017,84.5901 -24.503,2.1633 39.3762,19.3899 -32.0219,-24.8401 0.2315,-3.7286 40.4394,21.817 -22.2211,-28.1335 35.6323,6.1509 -40.1779,-60.3189 -0.8022,1.4388 -2.6752,-54.20646 23.7277,67.45976 -7.3381,-13.3592 -0.2311,-13.4807 63.9526,58.2002 -31.2726,-57.6964 -13.4551,17.5555 75.5385,35.7575 -55.7363,2.6769 -3.2949,-2.0376 81.2989,6.0974 -21.7819,-5.2009 -68.9087,-15.2481 31.9892,15.7269 -13.0622,5.2036 31.6104,16.5864 -12.8532,-22.4872 -7.0318,-22.318 8.7147,-14.4026 19.7421,-56.04736 43.9487,32.43276 23.8215,10.5586 0.828,0.6288 71.5043,22.178 13.4167,14.2961 -12.9864,-16.2601 -4.1244,-42.7002 102.3804,28.8015 -0.1375,35.3118 -1.3204,4.7618 7.3827,-2.7142 13.9611,3.2285 -13.5261,-22.0518 -12.3077,-84.82357 5.1668,54.61917 44.238,41.3167 10.3751,9.5508 -26.5637,-74.3835 32.2597,5.5982 29.8335,-2.9501 18.3934,-22.99762 62.4503,23.61582 37.9416,10.8599 0.8435,-3.994 14.4867,-16.36415 54.7218,20.31775 32.2601,12.3384 11.4078,3.8412 55.9202,18.636 -18.7454,-31.3812 30.6975,-1.3839 34.3756,18.65 21.4504,5.5481 62.2923,24.7244 17.276,8.9203 -13.8205,-27.5144 6.2086,-13.6252 131.183,44.4455 -49.5133,-23.4565 7.1658,28.6429 44.5183,18.0566 23.4146,5.876 37.6264,17.3164 0.2777,0.2716 41.9397,11.6143 32.5568,20.1961 -2.0618,-22.1986 13.563,-1.5434 29.6617,4.3223 59.37,-0.6604 -11.3068,-37.0941 72.9844,16.5922 0.9888,0.769 -8.1593,-39.2876 58.0478,40.0946 8.1749,-34.3295 31.9009,3.4361 44.6109,16.2471 35.6955,10.2011 82.2745,38.893 43.0283,2.4872 -3.6604,-6.2048 50.2388,3.8776 42.3942,-43.1093 -9.426,-14.4451 11.759,-8.2893 23.7447,20.7009 13.5269,10.437 16.3422,5.3177 49.0082,10.4324 -13.7224,29.1269 -13.7893,-77.71 60.6157,61.7605 -59.4301,-74.7061 17.8601,63.4426 -11.1951,23.972 7.2159,4.9347 -2.9114,-1.2406 -29.8981,-36.9705 20.1876,15.6231 -5.2907,-41.5972 1.6106,13.9829 11.036,36.9998 -28.4041,-32.4686 91.7823,40.7543 -77.8571,-21.8853 0.8713,4.4358 -0.2226,-66.1985 -16.3422,-28.7018 46.4493,16.9678 -8.6731,-9.9564 -7.1411,-28.0289 -7.1335,-11.7492 -0.5997,-0.6134 -9.9563,-11.2396 42.5315,14.1353 8.1939,6.8207 -7.1053,-7.9147 -7.8352,-22.50418 26.2472,32.13098 -19.0711,-8.6357 -23.3079,-33.77473 -2.5184,17.12363 0.5066,-25.45933 5.7861,28.30813 4.755,6.163 24.7729,14.892 -8.3455,-3.7147 60.0383,-3.702 -93.2629,-59.15071 -8.097,-66.25231 -2.0086,-62.13933 -10.0064,-14.03003 -11.3504,-62.29621 7.1737,-28.5837 7.9919,-46.51492 -5.1014,-66.47466 11.7731,-39.41293 44.2753,-16.20159 7.4786,-58.98383 -10.8857,-109.5572 1.6433,-10.08801 33.569,-38.95115 36.2521,-39.6352 19.2038,-51.3941 30.5682,-56.99391 -19.2983,-102.021199 -16.1225,-82.02638 14.5974,-4.800985 57.0194,-24.500389 -19.1199,-88.557997 39.5931,-32.9989 -7.4944,-74.26275 9.7913,-38.74139 21.0257,-31.49712 -5.1738,-70.17177 23.0295,-8.89251 44.0476,-27.1079 0.418,-62.21046 47.392,-17.73022 -5.9385,-65.29529 -6.494,-56.88117 11.4308,-3.97195 17.8476,-34.37453 25.7432,-47.33671 -12.8456,-45.463 -5.6605,-28.2488 -18.0108,-78.53253 -11.9049,-53.95202 107.2748,14.81164 -34.9517,-8.56066 -21.9779,-29.05809 -2.4878,2.52438 -7.6509,-13.81756 66.1165,17.61398 -66.6838,-25.91923 32.309,-2.15026 13.7794,-6.22157 -3.5081,-52.11942 -5.7113,-64.92915 22.029,-22.5387 53.788,24.586 7.5531,4.4632 -9.3231,-22.8058 36.7517,25.8549 -1.8158,-12.8403 -13.9455,-58.9057 56.757,66.474 -5.7129,-26.6006 20.769,27.2569 -0.7662,-7.4681 92.9078,36.8429 -40.7936,-3.8545 -18.2547,-24.7245 21.5694,34.3687 18.6269,19.15337 -23.8256,-40.48597 28.5719,49.61189 14.8793,15.53255 47.2786,7.21068 1.6841,18.15644 -5.7507,11.28372 -15.6798,-6.75119 0.032,0.0183 54.6493,22.56775 -38.9115,-2.46386 35.5382,14.27942 -58.3001,-84.53542 47.4853,54.47447 -34.8068,10.89783 -16.4795,-25.06256 7.0754,9.30909 -1.7953,-57.18442 103.4899,58.67066 -85.5187,21.70312 73.3638,5.08512 -85.26,-20.19653 21.907,13.02991 -13.6215,-1.28369 37.4909,16.60308 -52.063,-92.15545 20.459,80.38177 41.1622,27.64203 -20.699,-19.61306 26.3442,29.2104 -7.9196,6.90026 -1.5838,1.99495 23.3622,6.34239 -8.8845,23.18646 31.1841,11.5216 -43.9506,2.06042 -19.5465,-36.36932 14.6735,19.0155 -15.7216,-1.41075 -16.3528,-19.61684 56.0606,66.05615 -35.1111,-2.87359 -0.041,6.20619 55.3221,14.23067 -60.918,20.77457 -16.6123,-15.41665 -1.4709,19.74314 30.9383,14.44202 -35.3978,-35.12991 -1.9739,66.86245 -11.774,76.56899 -35.6604,47.78152 47.1069,106.2291 9.0152,80.44313 -20.3971,88.9445 14.1306,85.88255 -40.2544,78.73026 -34.8179,59.221597 6.2147,75.729799 -37.7674,75.136924 -31.0215,62.53319 -46.6062,31.60261 -25.7958,89.94184 -36.191,20.56943 19.2508,131.5526 -14.7453,65.05749 -18.4853,64.55133 -17.4462,39.39869 -28.283,20.50366 -22.2505,87.55703 -6.671,87.73885 -0.2073,70.17623 86.0059,86.4954 -6.7571,9.13225 -21.7743,-11.58099 -5.9661,26.54809 -3.2372,10.59101 14.7684,25.47904 -23.3493,-6.0964 -20.1275,-16.49658 -8.606,-27.63964 -26.9415,34.77572 -6.7806,22.82991 6.8261,34.1437 2.774,-82.24925 -4.7144,69.38855 -6.4667,1.4623 17.3111,49.2932 8.453,2.1215 2.049,6.9973 -24.2031,-39.1838 35.8938,55.8455 -21.9132,-67.5059 6.6038,73.6569 -0.5455,3.7508 4.0138,7.8671 -20.1025,-35.8061 4.5771,38.8872 -3.1819,0.371 11.2239,11.4718 -2.0599,-79.3075 22.4133,86.0376 -3.4628,-1.7313 7.8883,7.76 20.9937,19.4756 -22.6437,7.7305 -13.9221,2.2754 -9.2896,-11.5113 -14.9215,-39.5324 65.6308,52.0283 -59.95,-25.8183 25.2213,9.9214 12.6558,14.9381 -36.2108,-23.6022 14.9397,12.7938 6.5075,6.1318 -11.401,-3.2872 2.5836,2.7898 -4.5274,-4.9318 -3.9235,-11.0939 4.0046,-6.4119 43.216,13.8706 -3.763,-16.0098 23.422,24.8897 -10.6472,10.6457 15.2893,9.6863 -24.7085,-17.0914 -3.6667,-15.7532 7.067,5.6798 22.4688,16.1726 -43.8669,-60.2099 21.0971,49.9599 33.4315,7.2691 -7.2965,17.1439 -18.7973,-12.3154 -2.3926,-0.2686 54.1351,14.0351 -50.3555,-15.1261 64.7278,5.2872 -70.1111,-9.9747 -19.931,-21.1807 10.82,13.0218 4.3553,1.3582 32.5219,9.3218 -7.6538,-27.4841 4.9677,2.071 8.8368,1.3256 6.5476,-26.4194 22.9352,0.8938 24.7718,14.8077 62.2411,20.5423 25.5494,9.0454 41.2756,20.627 -21.5395,-48.2687 40.6579,18.111 11.8462,12.655 1.5811,1.6536 34.2559,1.0483 9.3259,3.7689 -20.0419,-38.5311 78.812,38.2422 78.2588,1.5348 -62.9494,-2.428 44.9493,15.4194 -20.2922,-14.7692 15.9318,-11.072 71.7877,22.3641 -7.251,-67.0715 92.9991,32.3241 -5.9326,-45.9778 12.9215,3.6212 23.9113,9.8108 80.9204,20.4117 -7.6324,-30.3436 5.9497,-0.7119 62.3062,34.9393 10.9863,8.5449 -13.5589,-65.2727 38.7248,18.9148 33.6258,36.0367 -10.1355,-33.6384 66.4769,60.5902 2.2705,2.0508 -8.9676,-23.8614 26.1237,25.7428 23.7309,8.7112 -4.7898,-9.2845 9.4429,-7.7212 48.2312,5.6831 57.4475,16.6273 50.1295,18.0092 26.4645,0.8675 25.2389,-52.1593 67.1196,25.2234 57.9463,12.0781 58.58,2.9144 67.3828,11.1328 -12.4535,-48.302 5.1055,6.9377 -14.4537,-36.2882 119.1306,34.0213 27.2141,4.129 -6.8769,-25.7348 75.7746,31.8695 -1.5946,-68.2464 51.9187,48.0825 55.0256,6.1838 20.2884,-23.7713 81.7304,17.8846 47.444,-21.9081 110.1363,24.1408 39.5874,-12.2353 131.5517,-1.5751 51.2634,17.8406 27.6581,10.5133 35.9283,13.2171 -10.6404,-35.736 5.118,-11.7866 61.0215,3.946 -1.3625,-69.7288 24.3119,-0.087 27.239,-1.3768 12.8071,-45.9452 98.1834,46.0662 -11.9842,-15.9531 1.4862,-36.6516 55.7602,31.6918 -1.5901,-32.0126 38.1363,-45.12408 57.6508,71.04028 22.9493,17.0993 7.9925,4.2096 5.7433,-36.7238 33.4688,21.665 14.3401,1.6772 -6.6347,-39.66054 37.945,9.03274 0.5862,-17.98415 37.6692,19.57465 17.2035,11.1064 6.0935,3.611 -1.2092,-42.40324 15.566,-7.7738 44.1175,48.58904 -20.7458,-47.33276 29.5208,40.35756 17.4529,12.6185 45.7572,24.7998 3.3187,4.1954 4.2575,-2.2412 -48.8371,-15.4729 13.3362,4.5227 -19.2581,-12.7717 -2.8499,-2.3661 24.4033,18.6819 26.2356,11.5834 -53.6621,-34.7657 44.6163,4.7812 45.9074,10.4087 -41.0421,-106.46329 -11.693,-33.6407 -12.8446,-23.84939 -2.9709,-33.0138 44.0788,33.05098 72.4182,5.12696 -56.4882,-35.55666 -4.3133,0.0935 -21.3124,-34.73951 1.7685,-12.07575 -7.5153,-18.48592 24.6302,29.57891 -5.5695,-38.09509 0.8556,22.59334 27.094,20.32951 -8.8582,-27.95502 29.6747,37.89737 -35.6376,-56.25523 -14.2457,19.60229 4.8526,3.07951 -14.7049,-46.9925 4.7013,-26.49462 3.055,-38.42661 -9.9167,-30.96473 65.7274,-11.87309 9.8689,-6.82555 -15.7415,-56.05449 33.8609,2.66578 -0.3123,-41.68668 -11.6546,-112.0677 -2.8793,-3.32031 13.1836,8.73413 -4.1946,-19.84347 0.3768,-26.81783 -19.3513,-55.59129 74.1319,-3.17504 -36.5567,-102.46184 -14.6027,-27.71606 -10.1191,-9.31818 -10.3683,-64.6565 -3.745,-28.281681 0.5409,9.462686 -11.6881,-68.68268 35.8724,28.436345 5.8057,-27.490755 -7.1144,-43.213616 -12.5459,-42.789475 -12.6921,-33.967942 -19.4274,-84.722922 -7.3608,-69.00788 53.3523,1.12915 51.6724,9.62525 -57.5242,-52.35426 37.9827,6.71872 -42.962,-41.33754 -20.2476,-64.21327 -1.8637,-0.68852 -31.8123,-62.05508 -10.2247,-43.0348 -28.8556,-16.89123 57.4038,23.62766 -33.7318,-17.87458 84.7731,-8.82777 -105.3987,-41.6582 -14.4828,-66.90516 -32.5941,-20.54028 55.87,49.46346 13.3185,1.17374 -49.5679,-79.73683 -9.2773,-44.53125 -0.261,-0.27466 55.9174,23.39173 -10.2805,-11.65833 -26.9301,-9.46663 18.1318,11.28353 -5.5914,-6.13355 -9.468,-11.7269 35.0306,-7.93298 -63.4594,-46.06848 10.383,5.97916 -11.1787,-9.8223 4.3314,2.11151 -7.575,-24.05897 15.5647,19.19115 15.4441,10.36759 -34.6519,-78.14314 75.815,55.40391 -55.7954,-4.97991 -10.4002,0.3419 0.76,-2.05777 -4.6506,-19.23686 7.0542,-3.61271 11.7533,-0.93935 21.5539,-6.78713 18.4022,8.99001 45.2448,1.52848 -29.7719,-71.38831 1.9135,1.36261 -12.082,-14.17084 13.3717,7.21121 -4.5777,-5.53131 -2.4275,-24.81154 2.6269,-12.93109 55.7659,39.75076 4.332,3.89099 -0.7836,-1.45346 -6.2347,-84.86176 31.2096,72.06617 -7.3393,0.33861 -9.7832,-15.04459 24.4012,20.4297 -7.463,-10.246 65.8848,23.00003 -3.0958,-42.87718 20.0205,-54.9436 28.713,33.6352 29.6087,50.63662 -23.9222,-45.34118 40.1273,54.03806 78.4706,14.74439 -52.7828,19.74473 13.0981,7.96509 -15.4674,-4.00345 53.3294,18.99719 -43.5253,24.90849 2.2614,1.71051 -15.6647,-61.86219 -6.2487,24.90253 2.7418,16.56964 44.5539,32.23387 -33.4114,-56.8995 -7.3362,46.27897 4.686,14.27041 8.9796,23.37609 51.6811,22.6519 -50.7288,-31.28271 52.3058,63.46719 -6.2008,-7.6361 37.4967,80.20065 4.3546,24.5394 42.0861,61.0937 -10.0496,12.42997 21.3446,71.79258 60.9776,54.52848 -14.046,45.79387 60.783,50.86728 -42.3351,48.54085 -12.5406,34.04148 -21.298,10.7478 -15.289,34.78352 4.8002,74.05529 -1.9085,47.134929 -16.0325,31.957915 -10.6148,42.5222415 21.5542,84.6845085 -16.1447,7.565166 42.6625,87.66489 -2.3545,69.83274 3.8075,44.72295 -15.7534,-46.12051 -19.3642,104.11568 33.5474,61.41283 -24.9104,-10.68734 -5.6967,65.01089 -24.5919,-6.64061 23.1075,87.36834 -3.2366,17.21179 0.2111,35.62351 -7.3133,-37.61307 -14.4034,96.20665 29.8091,50.87724 -5.3741,26.44713 18.9394,38.52876 -8.4822,44.43089 -30.4326,13.47514 -4.8319,21.55616 39.0104,45.81988 -17.2346,41.29119 -50.9932,10.69248 -14.7954,-55.47961 -18.2184,72.08507 1.2483,35.19475 26.0051,11.8348 -27.2473,-55.32369 -15.1835,-0.0496 -9.017,44.60843 51.5185,18.5848 -23.4964,-29.92822 -12.3201,21.36932 -15.924,-27.30094 76.2029,53.03734 -17.8477,33.0337 -41.4512,-2.3181 29.8637,7.0813 -32.5805,-4.4245 82.0831,0.9958 -10.0496,5.3362 -80.8134,-17.1117 v 0 l 25.3784,13.562 5.1177,2.5562 -5.6884,-8.0918 24.2887,9.3151 -61.1315,-33.8337 3.3482,3.4249 -2.9154,-3.5208 44.1083,26.1104 -21.6999,-10.4767 56.7718,18.1961 -61.3617,-52.8702 41.6378,42.2178 -50.7198,-40.7468 17.1498,29.3216 -15.0147,-79.13975 9.7031,59.17255 23.8332,28.0228 -27.1021,-10.8041 27.2056,22.0134 34.5224,7.4956 9.8419,0.8881 -31.0654,1.4404 -37.5793,-34.9548 0.589,6.9753 40.7096,29.1135 -47.5135,-56.1343 0.3297,19.7822 85.1752,17.4513 -29.4091,14.065 4.4151,-25.9879 6.5436,-13.1962 53.897,32.0924 -13.3301,-17.4561 18.5217,8.7411 -1.2064,-13.8525 35.5338,15.4707 10.2255,-57.3572 46.4724,38.4649 82.8028,32.133 32.6171,7.6172 -0.2658,7.2904 10.4965,10.1764 -3.5764,-2.5734 38.2607,19.2909 -17.0807,-28.7137 60.8264,17.6598 4.6211,20.5156 64.8564,19.4482 -55.6271,-64.998 13.5129,36.3681 39.6891,23.3417 -17.0843,-14.7841 32.9742,5.1079 29.8274,-0.1962 72.6999,15.9246 15.9119,6.3889 55.9505,21.6436 -0.5157,-1.5473 17.9728,8.573 21.4755,-0.8535 35.5804,6.4181 7.3522,-19.6062 69.9657,10.0286 19.4703,1.0071 5.8939,-19.7885 62.2916,23.1797 -0.6353,-7.4824 32.1387,-5.8965 31.3346,-3.393 59.5569,18.4073 2.4277,-32.135 35.7216,-49.0893 77.5994,61.9252 17.9218,-8.7599 132.118,27.8796 66.0734,-0.166 -5.9417,-12.5885 50.165,14.0527 4.7457,-16.4424 33.9802,8.7707 23.5978,6.1635 -2.1944,-12.5778 63.4839,24.1044 12.9212,4.7898 -6.1035,-29.9454 29.5096,20.0832 h 35.7193 l -20.8374,-4.742 54.0894,11.023 -47.0424,-32.6012 1.4386,-4.3037 12.3431,27.275 -6.9274,-48.7312 -2.3154,36.4241 36.8347,20.3667 -19.5918,8.8768 0.1979,0.1444 -11.3323,-15.0157 6.4873,4.5071 4.2274,2.3938 0.8408,-2.0771 11.9585,-0.6106 10.8519,13.6706 46.5614,22.5442 -20.5599,-45.443 6.9174,31.7862 10.7881,17.2076 -1.5792,-19.361 25.4171,36.3797 18.473,26.9455 -40.4373,-43.0536 2.1937,21.2084 11.6171,11.4719 5.7919,11.2181 35.5406,16.7537 -40.318,-16.8058 -9.2593,-37.6277 63.9877,65.424 -53.1816,5.3624 -3.3966,-6.0883 -2.1662,-24.6582 3.6227,13.3027 -6.9068,5.0343 3.637,25.6279 -7.0358,4.3814 9.8633,29.538 13.1255,16.8235 -0.7416,5.6098 39.9324,34.91 54.8894,34.3006 -109.4129,-40.5048 -14.3931,5.8436 54.6349,34.9506 -41.7815,15.946 -7.8921,-2.5767 -8.6825,-72.306 -43.2239,58.1566 42.783,32.9644 -35.8947,-66.163 37.5516,84.5697 -40.4565,14.0153 -26.0944,-62.2502 -23.1221,29.6942 39.6707,45.8219 -11.6955,-26.5181 -17.9944,11.2131 -22.9738,-42.002 -6.7751,46.0266 -6.6834,-79.866 -34.7798,53.7101 29.7035,33.3628 38.9678,19.4839 -33.9073,-19.7946 -3.938,3.7096 -11.78,-1.8825 -25.411,-26.5609 -31.8318,-16.472 43.7723,37.8734 15.5445,25.5386 -47.371,-25.0575 -21.8656,6.6473 -29.9064,-36.5665 -29.4725,18.833 -11.8375,20.068 -6.9774,-81.4829 -27.1816,72.9638 39.7733,53.0175 -60.2743,-2.3975 -66.6876,-35.2852 -64.3964,-11.0329 -56.2298,-39.4685 -71.2757,-6.2554 -78.6662,-39.3507 -67.2578,-17.0014 -30.5572,25.962 -79.2113,-23.8441 -10.3814,36.8667 -57.0276,31.5491 -71.0446,7.2034 -52.3229,3.6783 -84.3251,-47.6825 -47.4737,0.1207 -44.0931,18.1333 -70.4457,-47.2725 -23.1223,31.268 -73.9511,10.9835 -68.409,-19.8364 -52.4414,-10.3226 -11.2919,39.6911 -95.6822,-45.8627 35.2912,14.5758 -74.9098,-56.6647 -14.8024,-1.2284 -20.1544,-28.6933 -25.7059,24.9021 -4.599,7.8831 4.7174,5.3253 -3.8395,0.4964 12.3627,17.9473 -12.4506,-19.9992 -15.1389,12.1476 -18.2829,-12.4449 -21.8911,-38.7534 16.1832,56.3364 48.7505,24.6705 -61.7897,-30.1134 0.7564,12.1671 17.7524,2.5167 -33.1512,-23.0757 6.0236,20.2815 -3.4354,7.6922 11.5682,9.0367 -24.9606,-11.8477 -18.4554,-21.6526 -16.0637,-65.0114 -26.2448,52.9009 117.5812,30.2048 -47.5023,6.1815 -31.1218,-28.5026 -5.5405,10.9633 6.1158,5.2369 24.591,15.068 -28.5258,-12.7359 -8.8715,-24.7467 -19.0429,8.9851 82.0827,32.9689 -61.2401,-22.575 -15.5778,-59.9741 -4.9249,51.3388 46.9131,39.4104 -44.3431,-39.0942 -5.3837,-5.0525 11.3342,-22.1512 -6.4682,28.7613 29.3258,26.2817 33.9829,-7.6507 45.6966,16.9905 -39.574,12.1982 46.8331,6.5952 -29.5307,26.7308 -0.9176,16.8584 -39.6207,-0.6449 18.1091,5.1941 13.6523,11.4935 -50.4328,-5.3116 -3.9063,-28.9063 -1.8844,-2.1423 -11.5357,-15.9851 6.3898,11.2027 -3.0143,0.8166 17.722,7.793 34.3231,24.0723 -30.4528,21.5527 -44.9678,-18.8696 30.5481,17.9123 -34.8318,-16.0355 -9.6451,-13.3088 8.5806,14.1193 -16.1148,-30.081 46.8024,32.0205 -13.8283,-16.3595 -28.2529,2.825 -3.7857,61.4415 25.1143,33.8369 30.1481,21.8625 -39.6426,2.9518 10.0943,31.0145 -12.4023,13.2354 -19.3798,-3.0458 29.493,53.5123 -1.6364,36.0299 -17.8938,-2.0498 -9.1869,25.2792 -22.952,-20.2627 -21.676,-13.0609 3.1879,82.0071 -5.2974,8.227 -0.7466,23.2513 47.244,45.4427 23.094,33.6638 9.5028,10.0515 -68.5631,3.1904 -11.4684,12.5464 47.5721,48.1734 25.6279,44.2969 -23.5718,-12.1776 -17.3376,40.5083 -18.6246,24.4328 18.2725,59.4863 -8.2762,-23.7093 -8.2131,78.3617 3.5377,38.7493 49.343,40.2257 3.4574,49.3572 -31.7589,-12.9913 -30.6602,29.3727 -4.4304,45.4052 -21.1606,2.0417 5.3492,48.0678 5.762,34.3516 10.9522,31.9817 -13.7499,-1.5809 62.9977,51.522 -38.636,14.1309 59.8563,21.2993 -24.6163,-54.0812 -4.6886,38.7444 -1.0909,-62.004 -3.0927,23.6133 -5.1197,37.5115 44.6803,29.3316 -32.5434,-10.9108 31.9517,16.6482 -26.1427,-3.5989 1.947,1.2085 4.7974,3.7964 -9.4941,-16.7771 11.3925,12.6356 26.6599,11.0018 2.7924,6.0745 -46.788,-69.1635 8.6587,47.6769 -6.7978,-34.6069 -1.6321,26.1066 39.8401,27.4723 -30.2301,-14.2563 -2.6367,-20.4346 -3.7872,0.2411 4.0058,-21.3369 8.6773,-6.4692 26.0126,-24.2695 14.406,1.2868 19.332,7.2995 9.3667,0.1742 44.9555,10.5822 41.4963,8.5235 -0.7202,-0.7446 -20.3905,-52.1984 18.8075,24.6296 29.4577,24.3148 -0.3296,-1.2085 38.8227,25.5424 -0.2778,-50.8209 69.3893,38.1 28.0095,13.4991 -24.8691,-27.1461 -6.5061,-29.415 50.4622,40.7732 -8.0336,-87.8077 25.182,91.5091 30.9208,10.3701 30.2976,-36.471 137.7257,7.598 -5.8915,-37.0941 9.1507,-51.2121 140.794,21.957 18.8705,8.3588 5.1911,4.0787 27.9236,-39.3148 48.8325,-1.1871 61.4802,14.0464 37.6692,2.6181 82.0149,12.5934 29.2453,1.6902 57.6555,0.843 96.775,16.3224 -10.8288,-32.3295 21.7649,-39.23 155.6656,24.5286 -2.2808,-2.06 44.8822,19.3186 112.806,0.7123 -24.5733,-17.9744 61.8241,0 29.4228,-13.4376 37.4856,-75.8418 52.0534,-1.9727 95.391,40.8964 -1.6479,-4.7379 16.4104,12.6825 83.0077,12.5416 8.6845,25.0738 -5.0706,-11.3322 -0.4482,0.7527 10.2926,12.9657 24.4335,10.5957 -1.9628,20.3929 -1.6609,3.6371 2.143,2.2577 -10.7128,-11.0244 1.0912,2.3661 -6.7825,-17.7411 31.4455,40.1935 -6.8625,-1.0868 -0.084,0.2538 0.2357,2.6597 5.4399,4.0177 5.2748,3.7115 17.1633,19.2557 4.7798,7.3062 48.3865,37.4408 24.5926,16.9006 42.5045,12.5752 -34.8091,3.7713 25.0746,23.4568 -32.0448,13.8844 -8.3872,-33.0031 -17.0059,23.9186 -9.6677,9.8455 61.511,33.5215 -63.2895,-19.8605 68.8389,38.2014 -58.3254,25.0268 -19.3692,-9.4095 -29.9817,-40.3479 51.8536,81.1484 -42.2758,2.6844 -16.1004,-23.2236 62.4532,39.5869 -77.2625,-79.6734 53.9065,28.439 -39.6013,-21.4726 -27.3513,-5.6104 -26.9621,46.9814 -20.6008,-5.0658 -2.3138,27.2112 3.1001,7.8884 -5.0786,-25.7641 -22.1705,26.2906 -4.5852,10.7802 20.0949,5.6048 9.6752,13.9882 -28.06,13.9123 -11.2958,7.4431 -16.3427,4.5138 -23.6247,-34.4939 -26.3379,2.2828 -39.2642,-49.6747 -35.0872,-22.3726 -28.4975,74.1706 -15.7809,0.5434 -3.4552,25.4231 -17.3574,9.6658 -64.3697,-67.3404 -30.3554,29.3548 -71.1032,14.7592 -40.5968,18.9063 -86.2769,-29.7255 -54.313,-4.1194 0.3053,30.2185 -105.396,-5.1423 -42.3506,6.2805 -52.0493,-12.3727 2.6393,16.0559 -104.7616,14.7663 -63.8489,-66.2764 -20.1061,50.4249 -43.0919,28.6747 -95.0489,-15.8574 -39.0928,16.4989 -51.0727,5.2626 -50.4311,11.6935 -70.8018,-20.7635 -13.7162,48.968 -78.3756,-39.4775 -47.2775,-23.2338 13.0812,28.7046 -38.7511,-52.804 -31.986,22.3713 -4.8358,29.7411 46.3874,24.7491 -51.4647,13.4247 -7.1002,7.6921 13.7959,19.5584 39.7111,16.7326 -75.6388,14.2347 -37.2868,-45.4568 -14.2486,-17.1464 -28.3909,-29.5141 0.9399,72.9262 -7.3059,-9.9976 4.2827,8.1791 -13.1801,-3.2294 -1.345,7.6561 -23.344,-18.2443 -13.2307,-17.3557 4.9446,42.2936 26.421,19.6088 -1.7753,-6.0044 57.4502,16.4675 -46.3952,7.6057 -41.0724,-38.9045 -15.7104,-32.2144 44.7945,31.6896 -33.0475,-5.483 -7.7322,-8.1255 9.4864,11.7341 -17.4129,-70.0167 -18.517,74.2306 3.0487,2.5543 -1.1596,-9.9731 64.6106,1.2151 -57.5438,10.9392 26.825,5.2681 -36.2057,-64.8939 -42.3802,-12.8976 -4.9081,50.8221 15.7914,19.8792 17.8024,9.9975 17.7497,7.7767 -39.8736,-23.0559 8.7023,15.0412 0.028,1.4067 -2.6251,-2.8091 3.7312,8.7916 -5.4871,-11.3526 -0.015,-18.9068 0.932,18.3892 34.744,25.6081 -32.0989,-50.9152 -9.719,20.826 63.7264,42.1464 -4.6439,15.0522 -55.4565,-33.8867 1.7544,5.6414 -13.4117,-24.0535 -1.8816,1.0663 14.7832,25.8308 4.6072,6.1201 2.6782,2.6999 -4.5319,-5.0262 -3.5849,-60.8402 50.1365,82.4235 -20.3767,-8.4364 -22.934,-53.3432 4.3042,37.5357 -8.5678,24.33 -9.3486,21.0028 4.5091,70.0968 2.6344,45.4525 31.987,62.6844 -8.662,16.4525 -3.462,55.95 -4.8852,45.5863 -7.0179,49.3129 -6.7197,32.7781 -11.0773,59.6451 10.2738,76.4105 38.3085,64.9185 -21.4919,-3.1576 53.8908,115.4442 -19.7993,88.4131 -30.7489,72.2378 -32.3365,51.1862 -40.3758,39.8477 73.498,86.155 -82.3086,78.7751 60.4291,67.6275 -19.4362,42.0945 -26.6044,29.291 -25.1308,-16.7227 -21.5546,110.5763 -3.673,43.2566 -26.9834,13.8838 -11.5315,57.5366 -7.376,37.3886 -9.1693,29.9809 -9.4157,10.7366 -16.3008,52.3449 -4.9486,39.7505 55.8303,37.4113 -22.3148,39.175 -13.4372,22.8217 -13.9754,16.7602 -6.1473,19.4619 19.1966,27.1697 -39.1297,-12.9089 -15.6014,14.6613 -1.1673,13.7 0.9356,16.3761 -12.348,-16.4787 44.9752,31.9189 48.8405,17.7981 -99.015,-37.6116 -4.0618,17.5068 -4.1949,-30.3486 -15.6186,25.399 -9.098,13.745 -1.7079,10.6302 -3.9148,2.0609 -20.0766,-41.589 -13.0887,17.5599 -9.2523,3.9682 -9.7806,-10.9538 21.6322,77.2866 2.1682,0.885 21.4569,11.9339 38.3637,15.3012 -58.3367,-41.0473 -7.7623,10.7814 -2.6941,7.3908 14.5134,15.5672 -32.7373,-38.2257 -3.993,0.76 0.6645,9.0477 16.2684,10.346 -20.0242,10.8126 86.242,6.2385 -43.4995,14.7385 -60.1106,-1.2894 -21.1394,-68.5537 -24.7698,19.5033 13.9154,12.3163 10.5274,13.5656 -25.9764,-42.1574 -16.215,35.1025 26.7609,7.9605 34.6745,16.0162 -69.5438,-45.4418 26.6217,47.8862 -27.8014,-14.3717 -0.5374,-0.3191 -19.3962,-65.5246 -25.604,3.9808 35.463,64.6476 -13.4516,-52.3865 13.6377,54.209 5.9376,5.5842 38.0845,14.1892 -53.571,-29.9603 -5.6401,-25.1835 13.6419,43.5888 42.8168,-3.4682 -28.8293,-5.9341 -18.981,-20.5993 -15.455,5.8057 28.6013,22.0337 39.5682,2.22 -65.9235,-43.3572 26.0394,48.4996 -18.7997,-18.6851 4.6295,2.5406 69.1721,16.1947 -78.309,-36.583 -1.9767,16.0219 3.0274,3.1982 -2.3499,-5.1574 69.8349,25.3906 -42.8934,-3.7963 z m -3857.3347,-2391.8593 37.8658,5.2106 -6.1101,-12.657 14.1,-38.7305 79.2028,11.7066 -3.7597,-4.4983 29.3899,13.2019 v -3.8147 l -19.1437,-42.2287 31.0404,-24.3131 65.3283,35.0857 54.161,17.5019 92.6692,5.04 -32.6417,3.3717 -1.015,-20.4146 -14.7649,-25.5142 39.1488,23.4485 -0.4491,-52.1957 12.3072,35.5479 5.7983,-26.3738 112.3947,46.4431 37.579,16.2426 14.1524,8.0429 -33.1763,-7.5342 0.6602,-18.5912 20.1423,4.1596 -4.3723,-24.5017 21.2426,4.0517 7.7328,-0.9767 25.3278,9.0061 -23.4772,-38.1317 84.1372,42.7526 -21.8979,-41.3818 10.9193,12.2214 34.7314,25.1032 21.1551,10.5734 3.7144,3.5994 -4.1815,-6.8781 -11.7248,-31.2088 2.6269,2.7255 38.5642,12.6843 -14.3832,2.7729 52.5757,20.05 1.0307,-6.7881 -10.0617,-0.457 -10.9583,1.873 -27.605,-26.4269 -9.4273,-22.9038 11.6438,-10.4927 59.2526,32.2703 26.6373,19.3725 73.8683,1.1688 -68.7653,-0.5295 -13.0218,-26.1612 1.1398,1.0162 -6.4621,-15.509 22.0915,18.5166 -13.5588,12.059 -1.831,-36.1634 27.5577,33.9412 -16.6538,11.6063 -22.0367,-27.6031 -4.6868,-6.37 5.3427,-58.417 70.79,102.4736 -64.1782,-44.0373 3.6737,19.14 2.7963,4.1748 -11.6959,-22.542 17.3185,30.584 33.0206,17.0654 0.6052,-23.9159 -13.8752,-25.5237 -1.0574,-82.4799 10.5813,38.1686 -8.1255,-1.7985 59.8438,20.6372 -64.2266,-32.8476 0.8872,11.9581 -2.9754,-11.5585 62.4939,28.1754 -12.1412,-7.1914 -27.8317,-6.4842 -28.8633,-20.3974 -6.6552,-4.1701 4.8645,6.929 6.9641,10.553 -17.8161,-25.4334 69.751,47.7966 -23.5675,-7.9631 -19.3088,-7.7739 30.6013,11.4562 -44.1673,-43.0016 73.1074,-9.8569 37.3276,-23.8713 -27.5016,-104.9226 -7.6538,-8.3924 -5.095,-43.6706 46.6526,5.8876 -27.0057,-11.0987 17.187,13.8185 -18.4234,-27.2637 -9.4148,-16.4073 -0.6201,-0.2303 -3.8401,-75.2366 18.679,38.3386 21.3736,5.8435 1.8003,0.4179 5.58,-17.2906 -32.8805,-27.2338 -16.7165,-18.0381 34.9548,22.0398 -37.1668,-32.5695 -6.0637,-10.4165 19.5248,4.0131 -37.4528,-62.2905 4.2724,-11.8903 -18.5673,-80.7768 -2.0798,-3.363 -14.7827,-19.5679 -3.6107,-30.6856 14.051,-22.3452 16.4311,4.3839 0.6943,0.6561 -6.7841,-16.0675 -15.5835,-47.3864 30.5225,27.1382 -0.6454,-0.769 4.7302,0.9155 -7.1594,-20.0744 -5.6768,-4.873 -2.1294,-11.4287 7.1085,7.224 -3.6519,-5.7386 -5.2099,-13.4849 32.7456,-1.2493 -43.5022,-44.3126 -2.2484,-24.1175 33.8738,24.3576 -29.1072,-60.2404 24.3988,15.1153 -12.5003,-18.3149 -22.7723,-63.8123 14.5737,34.1576 51.1413,24.1501 -42.2896,-24.7797 10.3475,3.8263 -22.1519,-35.8509 -4.4632,-0.094 34.5574,21.5497 -26.6671,-13.5179 -19.4427,-17.8767 -16.6151,-67.0104 0.5413,44.4168 -7.1136,-15.4694 -18.7234,-19.8103 1.074,4.4254 73.5634,43.2692 5.1553,-16.1992 -68.1724,-34.8278 5.8338,28.0742 1.0253,1.0252 -19.143,-73.8325 78.0625,31.6201 -38.2013,1.811 6.9896,6.7016 16.943,-7.0337 -30.6178,-1.5381 -14.377,-20.8346 29.7927,14.5186 -24.8234,0.3044 -5.9105,-18.816 -26.3034,-21.9913 5.2673,11.7798 11.0138,22.1466 1.8463,1.9989 -0.6622,-2.1286 25.8651,16.8198 -25.9081,-20.7704 21.2756,20.9718 -35.2298,-73.6175 56.1633,72.0062 -53.1638,-43.506 10.8359,24.9513 -17.1539,-23.9899 -7.8438,-4.5278 21.4612,14.4496 -22.0224,-0.1866 24.3859,10.3301 -27.0991,3.3598 1.7397,3.5581 -16.5364,-10.7134 -15.5761,-36.1084 -15.4016,12.4918 14.6046,29.3254 -8.1574,-48.2025 -29.2465,-22.3301 30.6752,79.962 -5.1269,-5.4703 -20.3552,-33.2702 17.1126,38.6028 9.6679,3.418 35.6208,18.2812 35.1938,-18.1722 -87.1276,-26.9801 6.2496,22.8772 -18.4023,-44.5297 11.0724,32.3836 -39.0541,-13.2667 -22.5021,2.3309 -24.0455,4.429 -57.1621,-59.2637 -38.1168,4.7865 -21.6832,13.2012 -29.7097,11.4819 -46.7359,-79.9812 -63.9826,27.2035 -32.6186,-12.7692 -31.5204,22.8661 -10.3906,22.1642 -39.1109,4.1773 -36.8267,-6.4131 2.7515,22.1142 -77.7291,-21.265 -19.3275,11.9509 -36.0207,-3.8016 -34.6738,-70.3008 14.8418,71.9332 -74.8223,-3.4845 -37.0117,-51.7783 -17.7113,49.3765 -28.4852,-21.1615 -4.4284,0.3191 -19.0705,-4.0999 -32.3551,-33.9661 -9.9185,8.8736 -25.2421,-20.4872 32.0933,29.8956 -31.9531,1.6389 -6.4643,4.1521 31.4948,2.5706 -52.0724,6.3086 -2.6419,5.9453 6.8614,16.0888 -48.3393,-9.1132 -23.2214,-48.5598 23.1175,32.6196 -29.5179,10.0269 -35.0994,-1.6919 -20.5928,-0.9739 26.0367,4.2398 -57.8017,6.3621 -37.6968,-7.7062 -10.5912,6.5642 -14.4936,10.1871 -7.7505,15.4334 -81.8537,-62.0723 -30.8359,-7.7955 -40.53,-21.0877 1.6772,12.3682 -49.8012,11.4497 -34.7454,-2.5723 -18.4121,11.3033 -48.9321,-72.8346 -26.3332,46.6355 -17.6631,23.8804 -28.4771,-3.2777 -40.4649,-59.5972 -10.1174,78.0556 -31.4031,-4.8999 -19.2482,7.1317 -4.9363,14.114 -44.0014,-19.711 -20.9819,7.6041 25.0819,37.4694 -41.4781,-64.974 -16.05151,35.9072 25.98151,18.9714 -37.20215,-57.3128 12.74467,42.9293 -19.06051,-70.8906 39.39989,93.3388 -25.61332,-1.6127 -13.29778,-11.5544 -5.37872,-6.3324 80.83132,17.6715 27.4772,-0.7879 -61.0252,13.8532 -23.38475,-5.388 -30.11819,-41.2282 11.26913,24.432 0.18203,-56.0093 3.44398,56.0453 61.4309,22.584 -45.89052,-7.1359 39.18122,4.5358 -54.59942,-16.9551 -2.74925,-27.9087 -9.08727,11.9827 4.21208,7.7285 -0.17294,5.122 -16.16339,-13.9293 33.9182,49.8649 5.70679,3.9428 54.2603,24.3531 -32.3826,-7.9561 -9.2803,-25.2953 -11.52738,-61.5996 41.99598,105.294 -24.6174,-56.7851 -4.1662,70.4123 16.9165,12.2081 32.1169,43.2948 -49.8036,28.8796 -13.65901,-8.4987 -32.96966,-62.9792 11.4042,22.2335 -0.37509,0.5677 -1.76158,-58.0078 0.37999,66.0464 -10.63185,-6.5234 3.66041,18.612 2.47223,3.6323 -12.10098,-11.2817 4.22353,40.96 -0.0742,12.9171 32.23775,27.6795 5.81642,10.9941 -6.93224,10.4031 -12.46152,1.2551 40.63288,32.3333 -25.39188,11.3819 0.76266,18.0857 9.3992,20.8135 -18.21837,-3.1736 -6.1004,13.7257 40.47069,30.965 -36.0025,18.0369 -11.60802,-17.8348 10.47902,24.7999 -10.62176,11.9302 13.23686,23.1191 -6.81713,11.492 -11.21665,8.3154 -28.54415,-55.8151 -0.89035,45.9712 -19.81015,-7.6075 89.19293,64.9579 -18.21994,32.1279 49.08434,42.7639 -35.62733,-1.4457 -17.87723,40.9368 8.23698,38.999 -14.27418,19.3443 29.11966,45.3613 28.3706,38.3661 -40.98316,42.6299 -25.79777,-49.0109 -28.97493,49.9152 -8.71351,36.8893 2.29178,38.3245 13.68115,34.6296 -9.61675,17.7323 -5.30496,-42.4981 15.28282,108.8461 -25.58326,-25.1856 26.29318,67.84 21.70175,21.1246 14.36633,28.608 -17.2892,-51.1996 -11.7679,51.7088 43.87689,2.3721 26.49244,23.5837 -42.64267,8.4674 -0.85602,-2.5177 -9.11848,-63.2353 8.73955,69.6733 9.192,17.3181 28.82842,22.1899 -62.13448,-6.7891 -10.86742,-33.8775 30.76172,19.9951 54.86098,8.3217 -74.52896,6.5191 57.39016,1.0941 -56.18878,-1.0577 -19.62051,-9.5923 -3.24707,-3.5461 -2.44446,-2.5681 22.58899,22.1213 -14.77514,-6.1333 -12.30056,-10.0728 -5.44884,-22.4095 27.45974,6.3676 -3.22448,-4.1859 8.52665,-1.1315 1.5049,-24.412 15.31487,-9.3928 24.4572,16.6367 -7.39815,-58.8613 44.59354,69.22 -0.6875,-18.3709 -6.5971,0.8853 35.9795,37.9746 61.514,29.9057 -42.4725,1.6931 0.888,7.5577 -24.6246,-82.2708 71.8383,68.9364 9.6269,2.9386 -96.9666,-43.9148 57.7173,47.2653 -41.5018,-14.6909 61.9794,13.1909 -61.1981,-21.7846 31.2692,-0.7589 23.4744,-26.8311 74.0796,24.9567 30.0428,16.0239 3.9223,2.6883 11.9163,-13.3929 36.3107,-19.5478 83.5498,27.9662 20.4316,13.9847 -17.7536,-66.6443 17.4375,7.9071 29.0628,16.6946 21.74,-23.3012 41.6725,36.9376 89.2409,11.4864 -5.3762,13.7446 9.4455,7.6469 0.2952,1.9003 69.7648,18.4133 45.0935,2.9371 -58.4152,-84.2421 27.6918,64.5755 43.8566,19.7188 2.6929,-42.6362 43.2599,-7.1976 40.6854,14.0653 9.9741,3.3735 52.5237,22.7034 -20.9412,-53.4668 27.6258,9.6927 28.0791,6.6162 -2.4528,-15.6406 29.6463,20.057 -13.0859,-19.3359 23.5722,16.2099 6.2734,2.8947 -6.6166,-39.6907 33.8464,32.1028 -8.8416,-32.349 24.3578,16.4712 9.7099,-0.6519 24.863,23.5969 -19.4569,-37.737 49.8167,53.5972 -2.899,-2.3671 z m 3824.3065,5.5119 52.7993,10.845 -33.9842,-103.1708 5.1773,2.8564 12.0117,1.7517 -10.6499,-60.0266 40.3738,17.0617 -11.0138,-3.7414 19.1999,-5.2143 -47.1101,-59.8576 -21.4233,-39.2212 20.4117,7.7759 -8.2916,-14.3012 47.6006,-1.4222 -35.8719,-34.128 -1.6615,-19.73 -26.0303,-45.0463 -25.1859,-53.7893 26.6142,22.3605 -12.8609,-107.2782 -2.443,41.1872 -10.5891,-86.4454 44.4956,78.5511 -18.5897,-15.5532 -6.9679,-39.7732 -10.4878,-52.8401 0.1448,-5.9133 71.9974,-18.7925 -14.1999,-51.2152 -28.3,-74.7536 -5.7144,-23.1842 -13.0921,-38.8794 49.1806,6.6254 -9.1049,-13.9209 3.7104,-8.1233 -10.3308,-32.9311 -8.344,-38.5763 -2.1243,-81.1689 -12.888,-26.1248 20.6258,17.0558 -16.1133,-22.3633 -2.038,-12.7837 3.6699,-58.985 6.6465,-66.0748 11.3943,-10.3522 18.5395,45.0792 20.8786,-15.2078 11.4091,2.1507 0.121,-13.9698 11.5011,-8.0573 -15.3461,-39.5743 44.4534,23.5656 -40.9704,-43.1183 -6.1432,-28.8544 -7.5934,-4.8409 2.1635,15.3603 -7.1777,-11.9629 4.7725,7.4627 -1.9137,-0.057 2.9747,3.1821 25.4577,11.1008 -18.4306,-7.1334 33.5799,-1.0424 -45.0897,-8.4025 6.7668,7.6518 -14.4455,-58.5066 20.0974,62.4129 -8.4379,-76.6069 9.8035,76.7518 -17.0288,-23.9502 38.1453,4.8893 -48.6869,0.913 10.463,14.0862 -3.2873,19.2893 -45.8411,-2.555 -6.7939,8.0887 -50.7306,-46.8458 -16.4714,0.3163 -39.6347,-40.9116 -34.6097,19.3027 17.8123,17.2202 -44.1121,30.1349 -21.8894,27.4045 -79.0553,4.7198 -40.9858,5.7055 -21.5114,10.1985 -93.1245,-71.3364 -33.0951,30.8061 -70.0876,-8.2012 0.6827,48.0635 -47.733,22.4087 -75.2476,-6.3917 -67.2105,-2.7546 -66.0394,9.2758 -66.7201,-9.0812 -46.1042,16.9059 -48.9283,11.8559 -63.1064,-5.807 -35.693,10.9042 -7.5006,25.8147 -94.1238,-17.7471 10.9484,22.5035 -92.267,-23.3794 -28.8658,9.2345 -69.5006,-26.0998 -11.5429,16.0318 -43.1657,16.4606 -61.293,6.0309 -74.3962,-11.2461 -61.6858,-43.2944 -71.1189,10.05 -41.1534,31.212 -72.8267,17.3203 -120.4953,-13.8191 -97.3565,-6.977 -48.6365,22.8928 -36.0385,0.6595 21.046,10.0825 -109.9658,-8.4535 -51.2489,-42.7324 -24.7447,6.7167 -52.1789,-18.83 -33.1919,-1.9694 -23.0568,10.2813 -30.7553,5.2164 -37.522,1.8532 0.2606,15.1389 -60.5591,-19.7134 -33.5287,-50.5596 -56.3117,-7.5646 -25.4016,31.1528 -8.8304,11.8128 3.5662,12.5357 -15.9347,-9.4657 -28.0028,-13.9779 13.9006,41.0193 40.3221,1.9219 -18.1352,5.3271 -34.9096,-11.741 35.6344,20.6363 -25.2751,-0.2745 2.8309,5.7616 12.1322,1.3843 -12.4743,1.0636 -30.1533,-102.453 -9.1845,72.0655 26.4892,19.0124 46.0619,-6.5982 -55.329,-1.082 -13.6499,-14.3509 -2.0268,-2.6481 -19.1561,-67.4177 78.5058,100.3601 -28.7912,-17.5856 21.824,-0.6504 -55.672,-11.4033 28.1622,16.6686 -48.5024,-58.9265 50.8062,72.0192 -32.6857,-22.0614 46.875,7.8125 -28.1175,-7.5345 53.9709,19.13 -15.1925,25.4446 -25.9048,-47.645 80.6438,29.61 -60.5714,39.2312 -19.3376,6.1379 40.2671,7.6213 -62.1544,-89.5944 -17.0735,3.5681 32.2101,52.5898 -0.2853,-0.2868 -5.0141,-22.1588 16.0979,19.9194 -26.174,-34.2628 15.73,47.4205 -1.5564,-1.6113 -2.2689,-2.3104 25.2882,22.5607 -39.7616,-43.3142 37.0417,38.3746 -6.9167,13.7698 -17.5762,-8.2128 -4.9378,-4.8325 13.5751,39.7169 59.2468,59.3873 -5.5032,8.7427 0.8094,42.905 -10.014,-36.4445 14.2173,120.1144 40.8059,38.7138 48.9773,50.6515 -14.0288,52.2972 47.2894,39.0962 -50.3081,57.9345 -7.5975,28.4956 -26.5824,8.0744 -15.4641,32.0456 -13.9232,12.1127 -29.9696,33.0451 -8.6616,54.421 -22.122,17.1685 -6.9682,23.1646 -15.1776,60.3335 -6.8092,37.7287 -2.2358,55.6004 11.3285,69.0799 24.8862,12.7333 -29.3711,-18.0835 8.122,16.0787 69.5343,16.745 -29.1897,8.0623 -49.0323,-10.0065 12.677,6.8116 -7.5073,-5.1514 -7.8308,-4.9256 24.5728,12.7564 -10.907,-0.043 -17.0685,-55.5512 -0.1393,-49.3607 1.5164,80.9582 -8.1483,-12.6749 -9.4876,-30.2621 19.6757,-21.6599 2.8126,73.9332 -6.4347,-14.888 52.1319,38.5815 -52.4089,-33.42 7.1536,14.9969 7.8626,0.2436 34.7892,15.6534 1.538,1.4831 7.4423,0.1094 20.8268,6.0882 69.0894,-0.072 1.0407,0.3022 -18.4082,-38.9405 10.0113,8.899 28.0288,7.1411 36.1847,5.4168 21.6614,12.378 -8.0414,-52.1393 -21.6064,-43.5791 43.9109,24.7294 29.0307,12.1879 10.9131,7.3975 28.4271,0.618 -0.4486,-0.4547 73.177,25.6116 -50.4023,-36.7905 3.7067,24.2886 42.7705,30.7166 -44.4066,-15.5337 24.7461,0.7451 68.257,21.2358 39.7629,23.5748 -20.9137,-57.1014 19.56,2.6191 7.5763,-67.4423 130.9435,45.9284 -0.3571,-21.2448 -6.4387,-13.3751 26.295,2.9388 12.9588,-28.1291 41.8369,11.0483 49.9432,34.685 15.572,10.7646 46.5762,26.2794 47.0123,8.9202 8.8616,9.5064 -10.8868,-47.8662 18.9837,22.3264 10.1605,-3.6886 32.0582,12.6689 50.118,19.7129 5.9611,-16.7886 55.8517,-3.1782 41.2626,-23.2566 62.0417,1.339 37.2903,-9.5415 41.2755,-12.7119 46.2716,-37.2892 56.8615,8.1153 58.0036,24.3449 9.4307,-8.8171 53.2495,17.9084 34.5795,9.5677 19.7528,-24.0204 41.7838,-16.1482 53.3101,-9.3129 51.2888,28.3655 61.0542,30.2171 2.1259,-18.3191 42.2703,-9.4788 136.3597,66.5026 -1.8402,-8.6899 37.7015,18.9813 55.909,5.9602 156.095,30.2798 58.6577,10.3918 3.122,2.3834 3.1306,-22.9935 32.2635,-25.7879 90.2351,29.6732 -16.8152,-30.5862 18.0353,-30.3079 60.4186,34.5945 20.1486,-70.349 61.9145,-3.1361 56.1564,74.3269 10.2511,10.0493 15.6261,16.1629 4.3048,4.7655 0.3271,-2.7406 10.3622,-27.7609 35.9655,50.1594 4.9788,5.2455 7.9453,6.6369 1.1352,-4.9873 16.175,10.1187 -4.5383,-61.1473 69.6728,86.2987 -9.7338,-12.2234 2.0645,1.8799 1.9226,1.8844 -0.6805,-0.6866 21.875,15.625 13.4178,0.4161 -32.3373,-44.0095 -9.8024,-19.2629 -4.2509,19.1309 11.1504,11.0644 -12.001,-34.3414 3.5546,14.511 -5.2779,-55.2994 21.936,75.6713 -9.3246,-2.0653 -15.9348,-66.2178 20.9565,73.0072 13.4229,8.7904 -33.5593,-36.1116 5.9701,-54.6856 4.2542,72.5342 8.6029,6.6986 -13.028,-71.2509 2.1845,4.7568 -0.079,-15.9839 -7.7575,-6.9638 46.2437,40.7952 20.3896,17.734 -38.6631,17.1695 -2.9663,-3.8453 -2.9755,-6.7901 20.8283,12.2452 -18.9853,7.5336 -4.6328,3.8461 -17.0562,-47.8729 38.2352,18.7316 38.1986,32.3504 -69.6132,-12.7504 40.5823,22.4533 -14.4012,-1.8067 -30.9113,-32.3211 -7.7793,-14.9311 35.7147,37.8134 -19.5309,-49.8538 2.1757,44.3504 z"
       id="path45"
       transform="scale(0.26458333)"
       inkscape:path-effect="#path-effect45"
       inkscape:original-d="m 5866.8681,5001.3146 c -53.911,-23.3151 -101.6496,-84.1582 -112.8169,-143.7856 -3.3107,-17.6765 5.6634,-83.0376 26.1588,-190.5251 126.2511,-662.1186 195.2318,-1207.5888 186.2215,-1472.5605 -3.12,-91.7513 -6.3869,-114.3187 -20.5658,-142.067 -19.6713,-38.497 -19.7948,-38.5352 -145.2239,-44.9244 -114.9742,-5.8566 -324.8652,-26.6526 -627.2017,-62.1431 -491.7635,-57.7271 -620.9287,-65.3218 -884.3154,-51.9965 -94.2751,4.7695 -397.0137,11.0447 -672.7525,13.9449 l -501.3433,5.273 3.7403,98.1042 c 2.0572,53.9575 10.2625,143.6836 18.2339,199.3916 13.0242,91.0181 14.4269,153.4227 13.835,615.5147 -0.7417,579.0957 -7.3014,738.491 -32.3846,786.9239 -58.8932,113.7158 -200.2036,141.1488 -288.9373,56.0922 -41.4606,-39.7424 -58.7179,-79.9137 -59.2415,-137.9012 -0.2514,-27.8539 4.3814,-222.4423 10.2952,-432.4185 11.6359,-413.1437 4.9267,-727.4633 -19.0421,-892.1068 -6.5504,-44.9949 -13.9696,-128.5998 -16.4872,-185.7887 l -4.5773,-103.9797 -67.1325,4.4866 c -36.9228,2.4677 -107.4525,6.5172 -156.7327,8.9991 -143.7509,7.2396 -316.3329,25.5085 -437.1032,46.2701 -254.2195,43.7028 -456.1081,45.9832 -975.1864,11.0149 -76.1244,-5.1282 -140.66264,-7.0694 -143.41836,-4.3136 -2.75571,2.7557 7.8641,153.1753 23.59954,334.2658 15.73552,181.0905 32.70552,378.3408 37.71132,438.334 12.8752,154.3069 12.8554,575.5742 -0.031,654.4713 -20.2631,124.0638 -48.45228,174.5062 -115.71815,207.069 -100.51472,48.6584 -225.36642,-7.4692 -256.74934,-115.4227 -10.76371,-37.0258 -10.67941,-48.5705 0.88198,-120.831 25.72766,-160.8016 17.21766,-424.9075 -31.57076,-979.7919 -14.88284,-169.2666 -29.30458,-338.5587 -32.04829,-376.2047 -2.74364,-37.646 -8.05444,-70.3421 -11.80168,-72.6581 -13.3488,-8.25 -333.47769,-26.1543 -561.055762,-31.3788 -157.620908,-3.6185 -283.249268,-2.1241 -394.316568,4.6908 -185.03661,11.3535 -201.47399,8.9356 -252.4717,-37.1378 -85.11629,-76.8974 -87.22764,-193.0185 -4.94363,-271.8926 38.0761,-36.4982 70.24048,-46.893 178.31914,-57.6288 176.34851,-17.5171 746.86187,-9.6671 968.57658,13.3272 l 45.68818,4.7384 -5.46967,-158.6424 c -6.27724,-182.0642 4.24097,-392.8779 27.49816,-551.1398 17.37107,-118.2075 33.90644,-367.574 24.88331,-375.2597 -3.20964,-2.7339 -67.19239,-0.5828 -142.1839,4.78 -496.831443,35.5301 -968.00414,34.9383 -1097.22498,-1.3782 -89.11186,-25.0442 -146.52412,-120.9509 -126.35518,-211.0752 11.61132,-51.8848 48.44091,-101.4452 94.18732,-126.7445 40.08749,-22.1698 44.57873,-22.342 299.61668,-11.4881 94.27504,4.0121 257.52066,5.0535 362.7680097,2.314 180.9538403,-4.7099 599.6632603,-28.8238 606.5488403,-34.9317 1.75586,-1.5575 -0.92639,-158.00089 -5.9606,-347.65196 -26.18773,-986.56497 3.06901,-1426.08301 116.56267,-1751.0952 33.41669,-95.69554 65.20693,-146.50714 108.25821,-173.03324 75.72467,-46.6578 156.65379,-36.3601 223.00573,28.3762 65.257,63.6681 72.9938,120.5874 31.0623,228.52243 -89.16237,229.51071 -124.32727,585.10516 -116.90486,1182.16589 3.65491,294.00114 17.28708,799.83178 21.67383,804.21838 1.40727,1.4074 49.51453,-1.015 106.90483,-5.383 57.3904,-4.368 199.6255,-11.5669 316.0782,-15.9977 251.3211,-9.5622 421.3832,-1.5776 591.716,27.7818 184.4677,31.7957 339.9297,45.024 716.3899,60.9575 l 78.4427,3.3201 9.5711,-152.3102 c 22.1054,-351.77418 84.8956,-758.30349 189.226,-1225.12738 65.9407,-295.04975 160.5457,-651.68904 186.0113,-701.21929 56.4108,-109.71863 199.6197,-135.78063 286.8172,-52.19657 14.3025,13.70982 32.6166,37.75305 40.6981,53.42943 28.3102,54.91621 27.2749,81.26933 -8.1067,206.3679 -156.3865,552.93343 -275.1741,1165.21544 -315.7008,1627.25639 -6.3897,72.84889 -11.6353,157.38332 -11.6568,187.85442 l -0.039,55.4018 40.9045,4.9132 c 22.4974,2.7023 200.4318,5.0035 395.4098,5.1138 194.9779,0.1103 435.1455,3.9779 533.7058,8.5946 355.5326,16.6539 443.9501,12.2506 962.2286,-47.9191 377.3033,-43.803 557.2284,-60.3465 765.7544,-70.4081 99.4904,-4.8005 183.3049,-11.0145 186.2543,-13.8088 9.2176,-8.7329 45.1049,-141.15237 64.7232,-238.82038 45.6878,-227.45255 64.5129,-503.45379 51.2653,-751.618958 -14.1592,-265.244842 -47.4236,-452.681382 -115.4767,-650.683352 -38.1058,-110.86973 -39.6972,-140.43254 -10.5984,-196.89216 33.5342,-65.06588 95.2389,-103.33383 166.1437,-103.03903 84.5368,0.35149 144.1006,49.88362 183.5695,152.65303 108.0899,281.44515 155.5749,614.29449 147.5372,1034.17377 -5.4506,284.73095 -33.9623,520.36159 -86.9955,718.96158 l -17.5017,65.5409 16.3512,3.2811 c 98.3718,19.7395 326.7696,54.4131 460.4567,69.9031 248.8347,28.832 400.1866,37.4025 747.9673,42.3549 349.8274,4.9815 359.1754,5.5155 390.7606,22.3219 43.746,23.277 78.5981,67.385 93.51,118.3451 23.878,81.5977 -15.8203,170.0116 -94.5376,210.553 -37.982,19.5612 -42.0701,19.9501 -237.5638,22.5997 -426.6592,5.7828 -870.9427,-27.5048 -1281.9114,-96.0462 -85.7046,-14.2938 -173.2839,-27.1863 -194.6208,-28.6499 l -38.7943,-2.6611 -24.6965,97.3916 c -27.5541,108.6608 -53.4255,279.8853 -65.2135,431.6021 -14.3061,184.1265 -7.8049,543.7389 11.8816,657.2356 4.2467,24.4827 5.6441,25.3218 42.1703,25.3218 65.0971,0 193.2308,-15.3286 358.8734,-42.9318 384.9071,-64.1424 725.7791,-91.0362 1172.5945,-92.5143 302.5317,-1.0008 310.6004,0.068 363.879,48.2026 85.1164,76.8974 87.2278,193.0184 4.9436,271.8926 -49.4375,47.3893 -60.2822,49.0907 -312.891,49.0907 -447.9038,0 -801.7921,28.2448 -1212.9434,96.8084 -87.8472,14.6495 -192.5413,29.1449 -232.6535,32.2121 l -72.9313,5.5767 4.4895,35.9364 c 28.8184,230.6841 -3.2796,615.4657 -100.8143,1208.531 -54.9555,334.1594 -110.9026,621.1832 -127.2723,652.9406 -19.3571,37.553 -59.5404,75.6035 -95.8218,90.7361 -36.4957,15.2219 -102.9622,15.0676 -138.5462,-0.3215 z M 2014.0576,2611.5 c 130.9587,-24.5221 282.1974,-40.661 486.9579,-51.9639 83.5619,-4.6126 187.4522,-10.334 230.8672,-12.7142 l 78.9364,-4.3276 16.7501,-78.663 c 33.6353,-157.9607 48.6823,-269.3826 52.9624,-392.1819 4.8952,-140.4436 -1.9204,-205.0092 -36.9213,-349.7665 -12.4337,-51.4227 -26.595,-117.162 -31.4697,-146.0873 l -8.8631,-52.5915 -79.0612,-0.04 c -227.1193,-0.1152 -570.8135,-28.5197 -776.3849,-64.1643 -140.7171,-24.3994 -149.6896,-24.99 -377.8793,-24.8758 -207.195,0.1037 -486.6209,11.7275 -565.6249,23.5295 l -28.02348,4.1862 -4.98925,153.3956 c -3.22958,99.2939 -12.03191,201.4848 -24.95733,289.7438 -22.39967,152.9513 -33.39121,465.148 -21.67056,615.5147 l 6.37681,81.8089 128.55691,9.5667 c 278.8914,20.7538 363.5515,23.8572 599.932,21.9921 227.1799,-1.7926 253.5365,-3.4551 354.5053,-22.3615 z m 3826.5007,12.2288 c -11.4472,-39.1587 -22.2789,-334.6586 -17.921,-488.9056 6.999,-247.7288 24.4089,-411.9744 64.7066,-610.4423 10.7447,-52.9181 18.3806,-97.37 16.9686,-98.782 -9.39,-9.3899 -361.7518,22.3782 -777.6204,70.1084 -546.7662,62.7536 -511.5654,61.6136 -1371.2732,44.4096 -280.6825,-5.6168 -524.7783,-9.0904 -542.4351,-7.7192 l -32.1031,2.4934 18.3812,74.0176 c 73.6365,296.5204 73.225,541.39 -1.5158,901.8459 l -5.2505,25.3218 330.1574,-0.037 c 181.5866,-0.02 449.3647,-4.403 595.0625,-9.7392 468.9691,-17.1762 557.1662,-13.1755 1090.7856,49.4792 290.8397,34.1489 540.1937,59.4597 598.5092,60.7522 32.2725,0.7152 36.9751,-1.0794 33.548,-12.803 z" />
    <path
       id="rect46"
       style="fill:#666666;fill-opacity:1;stroke:#000000;stroke-width:10;stroke-linecap:round;stroke-linejoin:round;stroke-dasharray:none;stroke-dashoffset:0;stroke-opacity:1"
       d="M 937.96187 -41.229008 L 937.96187 247.37456 L 1556.3985 247.37456 L 1556.3985 171.49031 L 1194.6134 171.49031 L 1194.6134 -41.229008 L 937.96187 -41.229008 z " />
    <rect
       style="fill:#644c2f;fill-opacity:1;stroke:#000000;stroke-width:10;stroke-linecap:round;stroke-linejoin:round;stroke-dasharray:none;stroke-dashoffset:0;stroke-opacity:1"
       id="rect47"
       width="331.89423"
       height="352.50879"
       x="333.95569"
       y="-133.99457" />
    <rect
       style="fill:#424242;fill-opacity:1;stroke:#000000;stroke-width:10;stroke-linecap:round;stroke-linejoin:round;stroke-dasharray:none;stroke-dashoffset:0;stroke-opacity:1"
       id="rect48"
       width="396.84128"
       height="312.11472"
       x="289.6232"
       y="824.58197" />
    <rect
       style="fill:#909090;fill-opacity:1;stroke:#000000;stroke-width:10;stroke-linecap:round;stroke-linejoin:round;stroke-dasharray:none;stroke-dashoffset:0;stroke-opacity:1"
       id="rect49"
       width="614.31354"
       height="307.15677"
       x="892.60992"
       y="808.09027" />
    <rect
       style="fill:#424242;fill-opacity:1;stroke:#000000;stroke-width:10;stroke-linecap:round;stroke-linejoin:round;stroke-dasharray:none;stroke-dashoffset:0;stroke-opacity:1"
       id="rect50"
       width="583.39172"
       height="204.08403"
       x="923.5318"
       y="426.72113" />
    <rect
       style="fill:#666666;fill-opacity:1;stroke:#000000;stroke-width:10;stroke-linecap:round;stroke-linejoin:round;stroke-dasharray:none;stroke-dashoffset:0;stroke-opacity:1"
       id="rect51"
       width="216.45276"
       height="325.70987"
       x="-88.642563"
       y="806.02881" />
    <rect
       style="fill:#909090;fill-opacity:1;stroke:#000000;stroke-width:10;stroke-linecap:round;stroke-linejoin:round;stroke-dasharray:none;stroke-dashoffset:0;stroke-opacity:1"
       id="rect52"
       width="182.43875"
       height="216.45276"
       x="-58.751465"
       y="420.5368" />
    <rect
       style="fill:#424242;fill-opacity:1;stroke:#000000;stroke-width:10;stroke-linecap:round;stroke-linejoin:round;stroke-dasharray:none;stroke-dashoffset:0;stroke-opacity:1"
       id="rect53"
       width="161.8242"
       height="391.67642"
       x="-43.29055"
       y="-125.74874" />
    <rect
       style="fill:#909090;fill-opacity:1;stroke:#000000;stroke-width:10;stroke-linecap:round;stroke-linejoin:round;stroke-dasharray:none;stroke-dashoffset:0;stroke-opacity:1"
       id="rect54"
       width="245.31313"
       height="286.54224"
       x="1776.9741"
       y="-45.352009" />
    <rect
       style="fill:#666666;fill-opacity:1;stroke:#000000;stroke-width:10;stroke-linecap:round;stroke-linejoin:round;stroke-dasharray:none;stroke-dashoffset:0;stroke-opacity:1"
       id="rect55"
       width="294.78806"
       height="327.77133"
       x="1729.5605"
       y="826.64337" />
  </g>
  <g
     inkscape:groupmode="layer"
     id="layer12"
     inkscape:label="Layer 2">
    <circle
       style="display:inline;fill:none;fill-opacity:1;stroke:#ff0000;stroke-width:20;stroke-linecap:round;stroke-linejoin:round;stroke-dasharray:none;stroke-opacity:1"
       id="path4"
       cx="2122.6245"
       cy="540"
       r="494.64801" />
  </g>
</svg>
