<?xml version="1.0" encoding="UTF-8" standalone="no"?>
<!-- Created with Inkscape (http://www.inkscape.org/) -->

<svg
   width="210mm"
   height="297mm"
   viewBox="0 0 210 297"
   version="1.1"
   id="svg1"
   inkscape:version="1.4 (86a8ad7, 2024-10-11)"
   sodipodi:docname="Vybuch.svg"
   xmlns:inkscape="http://www.inkscape.org/namespaces/inkscape"
   xmlns:sodipodi="http://sodipodi.sourceforge.net/DTD/sodipodi-0.dtd"
   xmlns="http://www.w3.org/2000/svg"
   xmlns:svg="http://www.w3.org/2000/svg">
  <sodipodi:namedview
     id="namedview1"
     pagecolor="#ffffff"
     bordercolor="#000000"
     borderopacity="0.25"
     inkscape:showpageshadow="2"
     inkscape:pageopacity="0.0"
     inkscape:pagecheckerboard="0"
     inkscape:deskcolor="#d1d1d1"
     inkscape:document-units="mm"
     showguides="true"
     inkscape:zoom="1.0267829"
     inkscape:cx="376.90537"
     inkscape:cy="480.62739"
     inkscape:window-width="1920"
     inkscape:window-height="1017"
     inkscape:window-x="-8"
     inkscape:window-y="-8"
     inkscape:window-maximized="1"
     inkscape:current-layer="layer1">
    <sodipodi:guide
       position="-44.094478,166.90307"
       orientation="0,-1"
       id="guide1"
       inkscape:locked="false" />
    <sodipodi:guide
       position="105.68098,213.91289"
       orientation="1,0"
       id="guide2"
       inkscape:locked="false" />
  </sodipodi:namedview>
  <defs
     id="defs1">
    <inkscape:path-effect
       effect="roughen"
       id="path-effect6"
       is_visible="true"
       lpeversion="1.2"
       global_randomize="0.8;1"
       displace_x="0.8;1"
       displace_y="0.8;1"
       method="segments"
       max_segment_size="0.222294"
       segments="14"
       handles="along"
       shift_nodes="true"
       fixed_displacement="false"
       spray_tool_friendly="false" />
    <inkscape:path-effect
       effect="roughen"
       id="path-effect4"
       is_visible="true"
       lpeversion="1.2"
       global_randomize="0.8;1"
       displace_x="0.8;1"
       displace_y="0.8;1"
       method="segments"
       max_segment_size="0.222294"
       segments="14"
       handles="along"
       shift_nodes="true"
       fixed_displacement="false"
       spray_tool_friendly="false" />
    <inkscape:path-effect
       effect="roughen"
       id="path-effect2"
       is_visible="true"
       lpeversion="1.2"
       global_randomize="0.8;1"
       displace_x="0.8;1"
       displace_y="0.8;1"
       method="segments"
       max_segment_size="0.222294"
       segments="14"
       handles="along"
       shift_nodes="true"
       fixed_displacement="false"
       spray_tool_friendly="false" />
  </defs>
  <g
     inkscape:label="Vrstva 1"
     inkscape:groupmode="layer"
     id="layer1">
    <path
       id="path4"
       style="fill:#ec8400;stroke:#000000;stroke-linecap:round;stroke-linejoin:round;stroke-width:0.4915487;stroke-dasharray:none;fill-opacity:1"
       d="m 111.35211,130.18628 c 0,0.21923 -0.24715,0.17198 -0.27184,0.38459 -0.15072,0.0845 0.29407,0.58513 0.23169,0.83443 0.31604,0.29082 -0.21362,0.29659 -0.29742,0.50514 -0.17784,0.0847 -0.27272,0.34364 -0.38963,0.55378 -0.18459,0.0934 -0.22514,0.36389 -0.34829,0.54232 -0.12025,0.15722 -0.13553,0.38069 -0.26383,0.53562 -0.0335,0.21617 -0.39264,0.12461 -0.54285,0.27088 -0.26976,-0.0416 -0.12134,0.3676 -0.28472,0.50633 0.0139,0.22335 -0.36106,0.28871 -0.55852,0.41707 -0.16749,0.11075 -0.24403,0.26728 -0.42568,0.36 -0.0994,0.15801 -0.40068,0.19452 -0.62252,0.2676 -0.18678,0.0711 -0.39127,0.12194 -0.60181,0.16458 -0.19485,0.045 -0.56629,-0.30154 -0.78193,-0.28105 -0.22343,0.0212 -0.4202,0.1831 -0.62559,0.1831 -0.21923,0 -0.2636,-0.003 -0.47514,-0.0253 -0.0962,-0.0197 -0.51952,-0.0648 -0.77543,-0.12768 -0.19297,-0.04 -0.38801,-0.10006 -0.5825,-0.17061 -0.17931,-0.0599 -0.35186,-0.12992 -0.53569,-0.21987 -0.1564,-0.071 0.17527,-0.16493 -9e-4,-0.27655 0.26844,-0.14653 -0.62401,-0.80984 -0.89668,-1.03166 -0.13201,-0.48729 -0.0871,-0.0848 -0.15143,-0.13825 -0.11269,-0.10789 -0.29052,-0.24298 -0.43734,-0.37567 -0.12347,-0.11062 0.0453,-0.12613 -0.0847,-0.26012 0.1357,-0.0615 -0.39374,-0.45155 -0.58205,-0.67778 -0.11566,-0.17622 -0.21399,-0.28933 -0.31161,-0.42549 -0.106,-0.17287 -0.2418,-0.38514 -0.32585,-0.53663 -0.12576,-0.24515 -0.21777,-0.38908 -0.26403,-0.53381 -0.0609,-0.19041 -0.0499,-0.51814 -0.0499,-0.75897 0,-0.21923 -0.0237,-0.47654 0.001,-0.68702 -0.0129,-0.24176 0.047,-0.40782 0.0922,-0.59818 0.0361,-0.21322 0.0411,-0.7105 0.11113,-0.89934 -0.0247,-0.42598 0.43687,-0.10743 0.48543,-0.212 0.42803,-0.0553 0.24239,-0.25566 0.33237,-0.40837 0.18377,-0.10358 0.36394,-0.22639 0.48024,-0.38368 0.26617,-0.0413 0.56596,-0.2643 0.68887,-0.40469 0.4202,-0.0615 0.0473,-0.39532 0.13223,-0.48654 -0.005,-0.32997 0.3564,-0.18385 0.48111,-0.28983 0.25465,-0.0574 0.16884,-0.67613 0.31019,-0.77184 0.0588,-0.5651 0.37669,-0.14303 0.56657,-0.17989 0.23445,-0.005 0.65141,-0.0424 0.87362,-0.0416 0.39475,0.008 0.17813,-0.10124 0.29537,-0.0956 0.17788,0.009 0.61095,0.24181 0.90117,0.24181 0.21923,0 0.37225,-0.0591 0.58327,-0.0355 0.1745,-0.0447 0.44543,0.0435 0.6713,0.0991 0.18878,0.0277 0.27781,-0.27127 0.47899,-0.19475 0.14793,-0.27818 0.47739,0.0863 0.74496,0.25551 0.13129,-0.0246 0.3245,-0.0158 0.53151,0.16596 0.11095,-0.12194 0.39942,0.18631 0.60603,0.43954 0.12427,-0.0346 0.3059,-0.032 0.45907,0.21355 0.14554,-0.19472 0.3225,0.37373 0.46891,0.71499 0.0923,0.0182 0.20803,0.50145 0.29461,0.76678 0.0721,0.19323 0.62013,0.47127 0.67097,0.65897 0.54771,0.25884 0.27225,0.34777 0.28324,0.49857 0.22433,0.29037 -0.0805,-0.0719 -0.14467,0.15494 -0.12693,-0.31123 -0.16244,0.66709 -0.21358,1.04938 -0.0349,0.26123 0.0699,0.60738 0.0699,0.7437 z"
       inkscape:path-effect="#path-effect6"
       inkscape:original-d="m 111.23834,130.09692 a 5.5573597,5.5573597 0 0 1 -5.55736,5.55736 5.5573597,5.5573597 0 0 1 -5.55736,-5.55736 5.5573597,5.5573597 0 0 1 5.55736,-5.55736 5.5573597,5.5573597 0 0 1 5.55736,5.55736 z"
       transform="matrix(4.0687728,0,0,4.0687728,-324.98893,-398.86012)" />
    <path
       id="path3"
       style="fill:#ffe949;fill-opacity:1;stroke:#000000;stroke-width:0.427167;stroke-linecap:round;stroke-linejoin:round;stroke-dasharray:none"
       d="m 111.35211,130.18628 c 0,0.21923 -0.24715,0.17198 -0.27184,0.38459 -0.15072,0.0845 0.29407,0.58513 0.23169,0.83443 0.31604,0.29082 -0.21362,0.29659 -0.29742,0.50514 -0.17784,0.0847 -0.27272,0.34364 -0.38963,0.55378 -0.18459,0.0934 -0.22514,0.36389 -0.34829,0.54232 -0.12025,0.15722 -0.13553,0.38069 -0.26383,0.53562 -0.0335,0.21617 -0.39264,0.12461 -0.54285,0.27088 -0.26976,-0.0416 -0.12134,0.3676 -0.28472,0.50633 0.0139,0.22335 -0.36106,0.28871 -0.55852,0.41707 -0.16749,0.11075 -0.24403,0.26728 -0.42568,0.36 -0.0994,0.15801 -0.40068,0.19452 -0.62252,0.2676 -0.18678,0.0711 -0.39127,0.12194 -0.60181,0.16458 -0.19485,0.045 -0.56629,-0.30154 -0.78193,-0.28105 -0.22343,0.0212 -0.4202,0.1831 -0.62559,0.1831 -0.21923,0 -0.2636,-0.003 -0.47514,-0.0253 -0.0962,-0.0197 -0.51952,-0.0648 -0.77543,-0.12768 -0.19297,-0.04 -0.38801,-0.10006 -0.5825,-0.17061 -0.17931,-0.0599 -0.35186,-0.12992 -0.53569,-0.21987 -0.1564,-0.071 0.17527,-0.16493 -9e-4,-0.27655 0.26844,-0.14653 -0.62401,-0.80984 -0.89668,-1.03166 -0.13201,-0.48729 -0.0871,-0.0848 -0.15143,-0.13825 -0.11269,-0.10789 -0.29052,-0.24298 -0.43734,-0.37567 -0.12347,-0.11062 0.0453,-0.12613 -0.0847,-0.26012 0.1357,-0.0615 -0.39374,-0.45155 -0.58205,-0.67778 -0.11566,-0.17622 -0.21399,-0.28933 -0.31161,-0.42549 -0.106,-0.17287 -0.2418,-0.38514 -0.32585,-0.53663 -0.12576,-0.24515 -0.21777,-0.38908 -0.26403,-0.53381 -0.0609,-0.19041 -0.0499,-0.51814 -0.0499,-0.75897 0,-0.21923 -0.0237,-0.47654 0.001,-0.68702 -0.0129,-0.24176 0.047,-0.40782 0.0922,-0.59818 0.0361,-0.21322 0.0411,-0.7105 0.11113,-0.89934 -0.0247,-0.42598 0.43687,-0.10743 0.48543,-0.212 0.42803,-0.0553 0.24239,-0.25566 0.33237,-0.40837 0.18377,-0.10358 0.36394,-0.22639 0.48024,-0.38368 0.26617,-0.0413 0.56596,-0.2643 0.68887,-0.40469 0.4202,-0.0615 0.0473,-0.39532 0.13223,-0.48654 -0.005,-0.32997 0.3564,-0.18385 0.48111,-0.28983 0.25465,-0.0574 0.16884,-0.67613 0.31019,-0.77184 0.0588,-0.5651 0.37669,-0.14303 0.56657,-0.17989 0.23445,-0.005 0.65141,-0.0424 0.87362,-0.0416 0.39475,0.008 0.17813,-0.10124 0.29537,-0.0956 0.17788,0.009 0.61095,0.24181 0.90117,0.24181 0.21923,0 0.37225,-0.0591 0.58327,-0.0355 0.1745,-0.0447 0.44543,0.0435 0.6713,0.0991 0.18878,0.0277 0.27781,-0.27127 0.47899,-0.19475 0.14793,-0.27818 0.47739,0.0863 0.74496,0.25551 0.13129,-0.0246 0.3245,-0.0158 0.53151,0.16596 0.11095,-0.12194 0.39942,0.18631 0.60603,0.43954 0.12427,-0.0346 0.3059,-0.032 0.45907,0.21355 0.14554,-0.19472 0.3225,0.37373 0.46891,0.71499 0.0923,0.0182 0.20803,0.50145 0.29461,0.76678 0.0721,0.19323 0.62013,0.47127 0.67097,0.65897 0.54771,0.25884 0.27225,0.34777 0.28324,0.49857 0.22433,0.29037 -0.0805,-0.0719 -0.14467,0.15494 -0.12693,-0.31123 -0.16244,0.66709 -0.21358,1.04938 -0.0349,0.26123 0.0699,0.60738 0.0699,0.7437 z"
       inkscape:path-effect="#path-effect4"
       inkscape:original-d="m 111.23834,130.09692 a 5.5573597,5.5573597 0 0 1 -5.55736,5.55736 5.5573597,5.5573597 0 0 1 -5.55736,-5.55736 5.5573597,5.5573597 0 0 1 5.55736,-5.55736 5.5573597,5.5573597 0 0 1 5.55736,5.55736 z"
       transform="matrix(0,2.3410046,-2.3410046,0,410.17234,-117.94623)" />
    <path
       id="path2"
       style="fill:#ee0000;fill-opacity:1;stroke:#000000;stroke-width:0.5;stroke-linecap:round;stroke-linejoin:round;stroke-dasharray:none"
       d="m 111.35211,130.18628 c 0,0.21923 -0.24715,0.17198 -0.27184,0.38459 -0.15072,0.0845 0.29407,0.58513 0.23169,0.83443 0.31604,0.29082 -0.21362,0.29659 -0.29742,0.50514 -0.17784,0.0847 -0.27272,0.34364 -0.38963,0.55378 -0.18459,0.0934 -0.22514,0.36389 -0.34829,0.54232 -0.12025,0.15722 -0.13553,0.38069 -0.26383,0.53562 -0.0335,0.21617 -0.39264,0.12461 -0.54285,0.27088 -0.26976,-0.0416 -0.12134,0.3676 -0.28472,0.50633 0.0139,0.22335 -0.36106,0.28871 -0.55852,0.41707 -0.16749,0.11075 -0.24403,0.26728 -0.42568,0.36 -0.0994,0.15801 -0.40068,0.19452 -0.62252,0.2676 -0.18678,0.0711 -0.39127,0.12194 -0.60181,0.16458 -0.19485,0.045 -0.56629,-0.30154 -0.78193,-0.28105 -0.22343,0.0212 -0.4202,0.1831 -0.62559,0.1831 -0.21923,0 -0.2636,-0.003 -0.47514,-0.0253 -0.0962,-0.0197 -0.51952,-0.0648 -0.77543,-0.12768 -0.19297,-0.04 -0.38801,-0.10006 -0.5825,-0.17061 -0.17931,-0.0599 -0.35186,-0.12992 -0.53569,-0.21987 -0.1564,-0.071 0.17527,-0.16493 -9e-4,-0.27655 0.26844,-0.14653 -0.62401,-0.80984 -0.89668,-1.03166 -0.13201,-0.48729 -0.0871,-0.0848 -0.15143,-0.13825 -0.11269,-0.10789 -0.29052,-0.24298 -0.43734,-0.37567 -0.12347,-0.11062 0.0453,-0.12613 -0.0847,-0.26012 0.1357,-0.0615 -0.39374,-0.45155 -0.58205,-0.67778 -0.11566,-0.17622 -0.21399,-0.28933 -0.31161,-0.42549 -0.106,-0.17287 -0.2418,-0.38514 -0.32585,-0.53663 -0.12576,-0.24515 -0.21777,-0.38908 -0.26403,-0.53381 -0.0609,-0.19041 -0.0499,-0.51814 -0.0499,-0.75897 0,-0.21923 -0.0237,-0.47654 0.001,-0.68702 -0.0129,-0.24176 0.047,-0.40782 0.0922,-0.59818 0.0361,-0.21322 0.0411,-0.7105 0.11113,-0.89934 -0.0247,-0.42598 0.43687,-0.10743 0.48543,-0.212 0.42803,-0.0553 0.24239,-0.25566 0.33237,-0.40837 0.18377,-0.10358 0.36394,-0.22639 0.48024,-0.38368 0.26617,-0.0413 0.56596,-0.2643 0.68887,-0.40469 0.4202,-0.0615 0.0473,-0.39532 0.13223,-0.48654 -0.005,-0.32997 0.3564,-0.18385 0.48111,-0.28983 0.25465,-0.0574 0.16884,-0.67613 0.31019,-0.77184 0.0588,-0.5651 0.37669,-0.14303 0.56657,-0.17989 0.23445,-0.005 0.65141,-0.0424 0.87362,-0.0416 0.39475,0.008 0.17813,-0.10124 0.29537,-0.0956 0.17788,0.009 0.61095,0.24181 0.90117,0.24181 0.21923,0 0.37225,-0.0591 0.58327,-0.0355 0.1745,-0.0447 0.44543,0.0435 0.6713,0.0991 0.18878,0.0277 0.27781,-0.27127 0.47899,-0.19475 0.14793,-0.27818 0.47739,0.0863 0.74496,0.25551 0.13129,-0.0246 0.3245,-0.0158 0.53151,0.16596 0.11095,-0.12194 0.39942,0.18631 0.60603,0.43954 0.12427,-0.0346 0.3059,-0.032 0.45907,0.21355 0.14554,-0.19472 0.3225,0.37373 0.46891,0.71499 0.0923,0.0182 0.20803,0.50145 0.29461,0.76678 0.0721,0.19323 0.62013,0.47127 0.67097,0.65897 0.54771,0.25884 0.27225,0.34777 0.28324,0.49857 0.22433,0.29037 -0.0805,-0.0719 -0.14467,0.15494 -0.12693,-0.31123 -0.16244,0.66709 -0.21358,1.04938 -0.0349,0.26123 0.0699,0.60738 0.0699,0.7437 z"
       inkscape:path-effect="#path-effect2"
       inkscape:original-d="m 111.23834,130.09692 a 5.5573597,5.5573597 0 0 1 -5.55736,5.55736 5.5573597,5.5573597 0 0 1 -5.55736,-5.55736 5.5573597,5.5573597 0 0 1 5.55736,-5.55736 5.5573597,5.5573597 0 0 1 5.55736,5.55736 z" />
  </g>
</svg>
