<?xml version="1.0" encoding="UTF-8" standalone="no"?>
<!-- Created with Inkscape (http://www.inkscape.org/) -->

<svg
   width="210mm"
   height="297mm"
   viewBox="0 0 210 297"
   version="1.1"
   id="svg1"
   inkscape:version="1.4 (86a8ad7, 2024-10-11)"
   sodipodi:docname="Shell.svg"
   xmlns:inkscape="http://www.inkscape.org/namespaces/inkscape"
   xmlns:sodipodi="http://sodipodi.sourceforge.net/DTD/sodipodi-0.dtd"
   xmlns="http://www.w3.org/2000/svg"
   xmlns:svg="http://www.w3.org/2000/svg">
  <sodipodi:namedview
     id="namedview1"
     pagecolor="#ffffff"
     bordercolor="#000000"
     borderopacity="0.25"
     inkscape:showpageshadow="2"
     inkscape:pageopacity="0.0"
     inkscape:pagecheckerboard="0"
     inkscape:deskcolor="#d1d1d1"
     inkscape:document-units="mm"
     showguides="true"
     inkscape:zoom="1.4520903"
     inkscape:cx="268.57833"
     inkscape:cy="571.24545"
     inkscape:window-width="1920"
     inkscape:window-height="1017"
     inkscape:window-x="-8"
     inkscape:window-y="-8"
     inkscape:window-maximized="1"
     inkscape:current-layer="layer1">
    <sodipodi:guide
       position="105,189.49694"
       orientation="-1,0"
       id="guide1"
       inkscape:locked="false"
       inkscape:label=""
       inkscape:color="rgb(0,134,229)" />
  </sodipodi:namedview>
  <defs
     id="defs1" />
  <g
     inkscape:label="Vrstva 1"
     inkscape:groupmode="layer"
     id="layer1">
    <path
       id="path1"
       style="fill:#6c6c6c;fill-opacity:1;stroke:#000000;stroke-width:1;stroke-linecap:round;stroke-linejoin:round;stroke-dasharray:none"
       d="M 104.99979 119.49607 C 104.99979 119.49607 97.274683 127.82598 97.274683 131.28914 L 97.274683 144.26665 L 104.99979 144.26665 L 112.7249 144.26665 L 112.7249 131.28914 C 112.7249 127.82598 104.99979 119.49607 104.99979 119.49607 z " />
    <path
       style="fill:none;stroke:#000000;stroke-width:1;stroke-linecap:round;stroke-linejoin:round;stroke-dasharray:none"
       d="m 112.7251,131.2889 c 0,0 -4.34318,1.91542 -7.7251,1.91542 -3.38192,0 -7.7251,-1.91542 -7.7251,-1.91542"
       id="path4"
       sodipodi:nodetypes="ccc" />
    <path
       style="fill:none;stroke:#000000;stroke-width:1;stroke-linecap:round;stroke-linejoin:round;stroke-dasharray:none"
       d="m 112.7251,133.40558 c 0,0 -4.34318,1.91542 -7.7251,1.91542 -3.38192,0 -7.7251,-1.91542 -7.7251,-1.91542"
       id="path5"
       sodipodi:nodetypes="ccc"
       inkscape:label="path5" />
    <path
       style="fill:#a4a4a4;fill-opacity:1;stroke:#000000;stroke-width:0.460118;stroke-linecap:round;stroke-linejoin:round;stroke-dasharray:none"
       d="m 394.31927,509.40558 c -6.20045,-0.44527 -14.86103,-2.64159 -23.04435,-5.84404 l -1.67392,-0.65507 v -1.85691 c 0,-1.02129 0.03,-1.8569 0.0667,-1.8569 0.0367,0 1.06386,0.36245 2.28262,0.80544 7.65402,2.78206 14.35905,4.46914 20.59858,5.18287 2.20687,0.25244 7.16886,0.18863 9.57172,-0.12309 3.95373,-0.51292 7.50645,-1.26847 11.85443,-2.52104 2.77237,-0.79867 6.79288,-2.13163 8.93473,-2.96223 l 1.23051,-0.47718 v 1.90758 1.90759 l -1.97827,0.75574 c -8.76647,3.34897 -16.59559,5.29692 -23.10006,5.74749 -1.97249,0.13663 -2.71972,0.13502 -4.74268,-0.0103 z"
       id="path6"
       transform="scale(0.26458333)" />
  </g>
</svg>
